<svg xmlns="http://www.w3.org/2000/svg" width="40" height="40" viewBox="0 0 40 40">
  <path id="Path_46" data-name="Path 46" d="M30,24.944c0,1.752.5,2.451,1.8,2.451,2.9,0,4.75-3.7,4.75-9.86,0-9.412-6.85-13.917-15.4-13.917-8.8,0-16.8,5.907-16.8,17.071,0,10.663,7,16.471,17.75,16.471a27.5,27.5,0,0,0,9.848-1.652l.8,3.352a35.609,35.609,0,0,1-10.7,1.552C7.95,40.411.4,32.651.4,20.686.4,8.621,9.15.411,21.2.411c12.55,0,19.2,7.509,19.2,16.721C40.4,24.942,37.95,30.9,30.25,30.9c-3.5,0-5.8-1.4-6.1-4.508-.9,3.454-3.3,4.508-6.552,4.508-4.35,0-8-3.356-8-10.113,0-6.809,3.2-11.014,8.952-11.014,3.05,0,4.95,1.2,5.8,3.1L25.8,10.223H30v14.72h0Zm-6.148-6.608a3.682,3.682,0,0,0-3.752-3.9c-1.85,0-3.9,1.5-3.9,5.907,0,3.5,1.55,5.457,3.9,5.457a3.662,3.662,0,0,0,3.752-3.955Z" transform="translate(-0.398 -0.411)" fill="#474442"/>
</svg>
