<svg xmlns="http://www.w3.org/2000/svg" width="40" height="40.001" viewBox="0 0 40 40.001">
  <path id="Path_44" data-name="Path 44" d="M27.99,7.989a20,20,0,1,0,20,20A20.022,20.022,0,0,0,27.99,7.989Zm5.653,12.626a.357.357,0,0,1-.357.357H31.012c-1.5,0-1.774.584-1.774,1.735v2.387h3.9a.356.356,0,0,1,.268.121.361.361,0,0,1,.086.281l-.555,4.3a.357.357,0,0,1-.354.311H29.238V40.775a.357.357,0,0,1-.357.357H24.444a.357.357,0,0,1-.357-.357V30.105H20.732a.357.357,0,0,1-.357-.357v-4.3a.357.357,0,0,1,.357-.357h3.355V22.283c0-3.724,2.254-6.037,5.883-6.037a31.032,31.032,0,0,1,3.362.172.357.357,0,0,1,.31.354Z" transform="translate(-7.99 -7.989)" fill="#474442"/>
</svg>
