<svg xmlns="http://www.w3.org/2000/svg" xmlns:xlink="http://www.w3.org/1999/xlink" width="585.782" height="51.952" viewBox="0 0 585.782 51.952">
  <defs>
    <clipPath id="clip-path">
      <rect id="Rectangle_12" data-name="Rectangle 12" width="585.782" height="51.952" transform="translate(0 0)" fill="none"/>
    </clipPath>
  </defs>
  <g id="Group_67" data-name="Group 67" transform="translate(0 0)">
    <g id="Group_35" data-name="Group 35" clip-path="url(#clip-path)">
      <path id="Path_6" data-name="Path 6" d="M86.723,48.145c0-1.025.026-1.025.026-2.052s.1-1.025.1-2.052c0-1.326.731-1.849,1.945-1.849.767,0,1.472-.075,2.045-.075,1.275,0,1.942-.143,2.3-.807a6.006,6.006,0,0,0,.257-2.571c0-.537.122-1.173.1-1.923-.013-.575-.069-1.216-.069-1.93,0-1.163,0-1.163,0-2.327s-.088-1.164-.088-2.328.267-1.165.267-2.329-.245-1.162-.245-2.324.279-1.164.279-2.328-.123-1.164-.123-2.329-.177-1.166-.177-2.331-.06-1.165-.06-2.331.366-1.167.366-2.334-.226-1.168-.226-2.336a12.4,12.4,0,0,1,.36-2.44,2.69,2.69,0,0,1,1.142-2.023A4.377,4.377,0,0,1,97.3,6.488c1.6,0,1.6-.01,3.2-.01a5.111,5.111,0,0,1,2.517.428,3.06,3.06,0,0,1,1.07,2.231,12.727,12.727,0,0,1,.321,2.452c0,1.15-.144,1.15-.144,2.3s.206,1.149.206,2.3-.121,1.151-.121,2.3-.115,1.15-.115,2.3.29,1.15.29,2.3-.062,1.151-.062,2.3-.294,1.149-.294,2.3.033,1.15.033,2.3-.045,1.151-.045,2.3.146,1.152.146,2.3.063,1.152.063,2.3.138,1.154.138,2.308-.245,1.154-.245,2.308a19.16,19.16,0,0,1-.176,2.373,12.948,12.948,0,0,1-.4,2.344,8.1,8.1,0,0,1-1.032,2.148,6.525,6.525,0,0,1-1.71,1.652,8.117,8.117,0,0,1-2.1,1.2,14.411,14.411,0,0,1-2.424.115,20.685,20.685,0,0,1-2.377.126c-.848,0-1.611.032-2.308,0a13.268,13.268,0,0,1-2.263-.272,3.422,3.422,0,0,1-2.031-.9,3.3,3.3,0,0,1-.709-2.16" fill="#9a0f1e"/>
      <path id="Path_7" data-name="Path 7" d="M137.7,30.1c-.018-.716-.167-1.438-.185-2.171s-.177-1.441-.188-2.17.084-1.449.084-2.178c0-.807-.179-1.592-.2-2.361-.019-.811-.04-1.592-.09-2.355-.054-.813-.172-1.58-.277-2.332a19.885,19.885,0,0,0-.454-2.291,14.213,14.213,0,0,0-.446-2.342,9.435,9.435,0,0,0-1.428-1.909,8.567,8.567,0,0,0-1.727-1.609A10.257,10.257,0,0,0,130.68,7.31a14.772,14.772,0,0,0-2.3-.549,19.928,19.928,0,0,0-2.342-.367c-.744-.061-1.529-.335-2.372-.335-.868,0-1.685.167-2.452.228a21.715,21.715,0,0,0-2.417.379,14.767,14.767,0,0,0-2.306.768A10.907,10.907,0,0,0,114.3,8.44a8.608,8.608,0,0,0-1.81,1.565,9.435,9.435,0,0,0-1.61,1.836,12.727,12.727,0,0,0-.948,2.274,20.931,20.931,0,0,0-.225,2.445c-.118.776-.316,1.569-.375,2.408-.056.786-.212,1.594-.232,2.429-.018.793.18,1.608.18,2.439s-.127,1.691-.11,2.558c.016.838.205,1.689.205,2.558s-.324,1.731-.341,2.584c-.016.868.11,1.731.11,2.592,0,.828.017,1.641.036,2.431.02.833.165,1.638.221,2.421.059.835.258,1.62.375,2.392a20.131,20.131,0,0,0,.3,2.406,12.026,12.026,0,0,0,1.085,2.164,9.7,9.7,0,0,0,1.074,2.2,9.365,9.365,0,0,0,1.932,1.539,11.794,11.794,0,0,0,2.279.9,16.157,16.157,0,0,0,2.373.508,19.928,19.928,0,0,0,2.387.591c.765.06,1.586-.152,2.452-.152.836,0,1.632.231,2.373.166a19.054,19.054,0,0,0,2.331-.427,14.206,14.206,0,0,0,2.267-.673,10.314,10.314,0,0,0,2.065-1.137,9.425,9.425,0,0,0,1.855-1.474,10.186,10.186,0,0,0,1.212-2.033,13.066,13.066,0,0,0,1-2.147,19.9,19.9,0,0,0,.395-2.331c.127-.748.167-1.533.238-2.341.066-.758.205-1.536.231-2.34.027-.764.061-1.551.061-2.352,0-.708-.2-1.43-.216-2.168-.013-.711.245-1.441.226-2.175M127.041,40.56a2.832,2.832,0,0,1-1.326,1.6,3.034,3.034,0,0,1-1.919.564,3.584,3.584,0,0,1-2.051-.37,2.993,2.993,0,0,1-1.182-1.794,10.82,10.82,0,0,1,.135-2.139c0-1.245-.245-1.245-.245-2.491s.267-1.245.267-2.491-.087-1.243-.087-2.487,0-1.242,0-2.486-.043-1.243-.043-2.485.144-1.243.144-2.484-.117-1.24-.117-2.48.141-1.242.141-2.484c0-.916-.144-1.926.479-2.622a3.22,3.22,0,0,1,2.558-.888,3.155,3.155,0,0,1,2.533.914,3.715,3.715,0,0,1,.584,2.6c0,1.246-.013,1.246.016,2.492s.173,1.245.173,2.49-.309,1.243-.309,2.487.144,1.243.144,2.486.01,1.243.01,2.486.11,1.242.11,2.484.115,1.239.115,2.479-.213,1.243-.213,2.484a10.88,10.88,0,0,1,.082,2.138" fill="#9a0f1e"/>
      <path id="Path_8" data-name="Path 8" d="M153.267,11.589a13.023,13.023,0,0,0-.125-2.462,2.87,2.87,0,0,0-1.2-2.082,4.677,4.677,0,0,0-2.423-.489c-1.6,0-1.6.137-3.2.137a4.648,4.648,0,0,0-2.4.4,2.765,2.765,0,0,0-1.156,2.051,12.692,12.692,0,0,0-.29,2.446c0,1.157.043,1.157.043,2.313s0,1.157,0,2.312.089,1.157.089,2.313-.268,1.157-.268,2.314.245,1.157.245,2.314-.279,1.156-.279,2.313.122,1.157.122,2.315.178,1.157.178,2.314.061,1.155.061,2.31-.368,1.158-.368,2.315.227,1.157.227,2.315-.212,1.159-.212,2.318.115,1.158.115,2.316.109,1.161.109,2.322.01,1.16.01,2.321a12.42,12.42,0,0,0,.291,2.434c.167.85.269,1.7,1.025,2.168a4.962,4.962,0,0,0,2.46.381c1.6,0,1.6.144,3.2.144a4.2,4.2,0,0,0,2.339-.726,2.755,2.755,0,0,0,1.339-1.932,12.894,12.894,0,0,0,.263-2.469c0-1.183-.29,0-.29-2.366,0-.615.062-1.39.062-2.368,0-.684.295-1.467.295-2.364,0-.717-.032-1.506-.032-2.373,0-.6.045-.6.045-1.2a5.516,5.516,0,0,1,.261-2.526c.42-.674,1.153-.72,2.369-.72.351,0,.351-.136.7-.136a6.4,6.4,0,0,1,2.3.446c.7.245.9.7,1.016,1.818a19.394,19.394,0,0,1,.181,2.318c0,1.182.019,1.182.019,2.365s-.028,1.182-.028,2.366.188,1.184.188,2.37-.372,1.184-.372,2.37a13.6,13.6,0,0,0,.155,2.514,3.23,3.23,0,0,0,1.4,2.14,4.875,4.875,0,0,0,2.493.572c1.6,0,1.6-.174,3.2-.174a4.841,4.841,0,0,0,2.463-.454,2.961,2.961,0,0,0,1.186-2.134,13.35,13.35,0,0,0,.02-2.464c0-1.157.278-1.157.278-2.314s.079-1.156.079-2.312-.206-1.156-.206-2.313.133-1.156.133-2.312V34.748c0-1.157-.277-1.157-.277-2.313s.205-1.157.205-2.315.051-1.157.051-2.314-.026-1.156-.026-2.311-.024-1.157-.024-2.314,0-1.158,0-2.316.088-1.158.088-2.317-.1-1.159-.1-2.317-.025-1.16-.025-2.322-.1-1.16-.1-2.32a14.471,14.471,0,0,0,.118-2.507,2.889,2.889,0,0,0-1.556-1.834,4.161,4.161,0,0,0-2.3-.531h-3.2a4.5,4.5,0,0,0-2.371.424A2.752,2.752,0,0,0,160.6,9.129a12.741,12.741,0,0,0-.305,2.46c0,1.346.253,0,.253,2.691,0,.7-.218,1.58-.218,2.689,0,.781.072,1.677.072,2.7a12.668,12.668,0,0,1-.154,2.03c-.126.81-.393,1.212-1.319,1.31-.5.054-1.171-.047-2.059-.047a15.816,15.816,0,0,1-2.1-.143c-.9-.113-1.279-.355-1.4-1.244-.064-.5.164-1.178.164-2.1,0-1.314-.138-1.314-.138-2.628s.078-1.318.051-2.633-.183-1.315-.183-2.63" fill="#9a0f1e"/>
      <path id="Path_9" data-name="Path 9" d="M196.238,26.144c-.509-1.087-.493-1.094-1.008-2.179s-.428-1.121-.942-2.2-.565-1.059-1.079-2.144-.642-1.026-1.158-2.11-.387-1.145-.9-2.228-.623-1.036-1.139-2.124-.387-1.147-.9-2.236-.551-1.071-1.073-2.156A3.794,3.794,0,0,0,186.6,6.94a4.869,4.869,0,0,0-2.311-.285c-1.695,0-1.695-.265-3.392-.265a4.251,4.251,0,0,0-2.358.77,2.975,2.975,0,0,0-1.508,1.923A13.873,13.873,0,0,0,177,11.59c0,1.155.178,1.155.178,2.313s.06,1.154.06,2.312-.366,1.155-.366,2.313.226,1.156.226,2.312-.212,1.157-.212,2.316.116,1.156.116,2.313.109,1.156.109,2.315.009,1.157.009,2.313.144,1.155.144,2.31-.309,1.159-.309,2.314.173,1.158.173,2.316-.144,1.158-.144,2.317.206,1.159.206,2.317-.122,1.161-.122,2.321-.113,1.161-.113,2.321a12.435,12.435,0,0,0,.436,2.439,2.617,2.617,0,0,0,1.165,1.97,4.2,4.2,0,0,0,2.341.814c1.6,0,1.6-.033,3.2-.033a4.945,4.945,0,0,0,2.506-.524,3.111,3.111,0,0,0,1.219-2.187,13.563,13.563,0,0,0,.087-2.479c0-1.147-.142-1.146-.146-2.293s.239-1.15.234-2.3.037-1.15.032-2.3-.109-1.149-.114-2.3-.024-1.151-.029-2.3.026-1.151.021-2.3-.195-1.151-.2-2.3c0-.379.226-.421.42-.421.126,0,.129.131.32.51.536,1.137.569,1.119,1.1,2.259s.522,1.141,1.053,2.279.689,1.067,1.22,2.206.438,1.184.97,2.324.659,1.081,1.192,2.222.649,1.087,1.181,2.228.282,1.258.815,2.4.459,1.176.994,2.318a4.087,4.087,0,0,0,1.84,2.035,6.592,6.592,0,0,0,2.652.794c.754.074,1.674.113,2.778.113a4.134,4.134,0,0,0,2.325-.793,2.776,2.776,0,0,0,1.4-1.894,13.128,13.128,0,0,0,.2-2.481c0-1.156-.027-1.156-.027-2.313s-.025-1.156-.025-2.312,0-1.157,0-2.313.088-1.156.088-2.313-.1-1.158-.1-2.315-.025-1.156-.025-2.313-.1-1.158-.1-2.315.271-1.157.271-2.313-.375-1.156-.375-2.312.021-1.157.021-2.313,0-1.157,0-2.316.106-1.158.106-2.316.009-1.16.009-2.318.155-1.161.155-2.321-.253-1.16-.253-2.32a14.116,14.116,0,0,0,.068-2.486,2.915,2.915,0,0,0-1.345-2.014,4.465,4.465,0,0,0-2.4-.617c-1.6,0-1.6.174-3.2.174a4.618,4.618,0,0,0-2.4.439A2.928,2.928,0,0,0,197.288,9.1a13.633,13.633,0,0,0-.037,2.487c0,1.208-.229,1.208-.229,2.416s.137,1.208.137,2.418-.05,1.208-.05,2.418.308,1.21.308,2.42-.394,1.212-.394,2.425.142,1.21.142,2.422c0,.441-.084.443-.277.443a.573.573,0,0,1-.65-.408" fill="#9a0f1e"/>
      <path id="Path_10" data-name="Path 10" d="M261.684,31.584c0-1.336-.056-1.336-.056-2.67s.1-1.333.1-2.665.026-1.333.026-2.665a22.631,22.631,0,0,0-.064-2.526,20.673,20.673,0,0,0-.7-2.432,19.867,19.867,0,0,0-.723-2.39,18.832,18.832,0,0,0-.915-2.334,16.769,16.769,0,0,0-1.516-2,15.834,15.834,0,0,0-1.582-1.925,15.07,15.07,0,0,0-1.78-1.807,9.7,9.7,0,0,0-2.027-.9,13.389,13.389,0,0,0-2.153-.442,20.832,20.832,0,0,0-2.161-.395c-.674-.061-1.411.066-2.205.035-.685-.028-1.414-.055-2.2-.066-.692-.009-1.423.03-2.2.03-.808,0-1.569.034-2.318.1-.8.073-1.626-.182-2.362-.035a17.727,17.727,0,0,0-2.212.787,15.515,15.515,0,0,0-2.155.882,13.861,13.861,0,0,0-1.959,1.255,13.12,13.12,0,0,0-1.646,1.628,13.414,13.414,0,0,0-1.45,1.794,15.166,15.166,0,0,0-1.33,1.929,18.134,18.134,0,0,0-.683,2.236,20.95,20.95,0,0,0-.472,2.273c-.132.744-.085,1.52-.149,2.312-.062.754-.135,1.513-.135,2.307,0,1.3.033,1.3.033,2.59s-.3,1.3-.3,2.591-.062,1.293-.062,2.587.291,1.293.291,2.586a22.817,22.817,0,0,0,.021,2.473,21.007,21.007,0,0,0,.3,2.469,18.855,18.855,0,0,0,.917,2.312,18.714,18.714,0,0,0,.9,2.311,17.124,17.124,0,0,0,1.48,1.993,17.13,17.13,0,0,0,1.4,2.077,16.13,16.13,0,0,0,2,1.505,9.676,9.676,0,0,0,1.955,1.085,12.59,12.59,0,0,0,2.163.549c.666.143,1.4.14,2.213.226.683.073,1.4.337,2.208.376.695.034,1.443-.167,2.246-.154.7.012,1.442.383,2.234.383s1.541-.083,2.24-.126c.795-.049,1.516-.3,2.2-.4a16.1,16.1,0,0,0,2.138-.577,13.472,13.472,0,0,0,2.17-.537,8.718,8.718,0,0,0,1.708-1.424,16.039,16.039,0,0,0,1.856-1.475,18.841,18.841,0,0,0,1.369-1.931,19.373,19.373,0,0,0,1.194-2.037,20.152,20.152,0,0,0,.9-2.177,20.12,20.12,0,0,0,.817-2.219,20.374,20.374,0,0,0,.3-2.348,20.008,20.008,0,0,0,.278-2.35c0-1.336-.138-1.336-.138-2.67m-10.948,1.984c-.047.792.028,1.574-.074,2.288a14.629,14.629,0,0,1-.529,2.232A8.364,8.364,0,0,1,249.2,40.2a5.723,5.723,0,0,1-1.81,1.408,6.261,6.261,0,0,1-2.077.793,9.6,9.6,0,0,1-2.231.535c.057,0,.106-.089.164-.089s-.152-.138-.321-.138c.055,0,.1.2.155.2a10.218,10.218,0,0,1-2.363-.413,6.769,6.769,0,0,1-2.256-.788,5.6,5.6,0,0,1-1.382-1.923,8.083,8.083,0,0,1-1.021-2.107,15.865,15.865,0,0,1-.43-2.331c-.084-.756-.245-1.544-.273-2.372-.027-.768-.15-1.566-.15-2.384,0-1.7.212-1.7.212-3.409,0-.79-.216-1.585-.184-2.358.034-.8.458-1.555.555-2.311a15.017,15.017,0,0,1,.4-2.291,8.837,8.837,0,0,1,.77-2.213,6.18,6.18,0,0,1,1.538-1.83,7.011,7.011,0,0,1,2.271-.73,9.253,9.253,0,0,1,2.317-.528c-.057,0-.1.256-.158.256.124,0,.155-.05.236-.074-.027,0-.052,0-.077,0,.057,0,.1-.01.162-.01a.276.276,0,0,0-.085.013,9.938,9.938,0,0,1,2.2.225,6.074,6.074,0,0,1,2.008,1.029,5.624,5.624,0,0,1,1.638,1.534,8.458,8.458,0,0,1,.8,2.108,14.111,14.111,0,0,1,.624,2.18c.109.721.237,1.476.287,2.267.047.735-.021,1.5-.007,2.282.014.745-.007,1.508-.007,2.285s.055,1.539.043,2.277c-.013.785.027,1.547-.016,2.277" fill="#9a0f1e"/>
      <path id="Path_11" data-name="Path 11" d="M275.664,8.959a2.546,2.546,0,0,0-.582-2.017A2.986,2.986,0,0,0,273,6.4c-1.3,0-1.3.055-2.591.055s-1.295.137-2.59.137a3.36,3.36,0,0,0-2.157.343c-.456.356-.652.96-.652,2.027,0,1.051-.143,1.051-.143,2.1s.043,1.052.043,2.1,0,1.053,0,2.106a2.373,2.373,0,0,0,.9,1.684,2.836,2.836,0,0,0,1.751.989c.9,0,1.377-.147,1.377,1.115a2.815,2.815,0,0,1-.865,1.917,3.072,3.072,0,0,0-.955,1.935c0,1.137.443,1.084,1.594,1.084,1.057,0,1.057-.062,2.112-.062s2.033.049,2.722-.78a9.067,9.067,0,0,0,1.079-2.716c.386-1.166.84-1.876,1-2.458a8.016,8.016,0,0,0,.183-2.645c0-1.061-.109-1.061-.109-2.123s.017-1.062-.01-2.125-.024-1.065-.024-2.128" fill="#9a0f1e"/>
      <path id="Path_12" data-name="Path 12" d="M375.648,29.964c-.018-.716-.168-1.438-.186-2.171-.017-.718-.174-1.441-.187-2.169s.084-1.45.084-2.179c0-.807-.179-1.592-.2-2.361-.02-.811-.041-1.592-.091-2.355-.054-.813-.172-1.58-.276-2.333a19.908,19.908,0,0,0-.455-2.29,14.214,14.214,0,0,0-.445-2.342,9.505,9.505,0,0,0-1.427-1.909,8.546,8.546,0,0,0-1.729-1.609,10.291,10.291,0,0,0-2.112-1.074,14.646,14.646,0,0,0-2.3-.549,20,20,0,0,0-2.344-.367c-.744-.062-1.53-.335-2.371-.335-.869,0-1.685.167-2.452.228a21.467,21.467,0,0,0-2.418.379,14.677,14.677,0,0,0-2.307.768,10.923,10.923,0,0,0-2.184,1,8.587,8.587,0,0,0-1.81,1.566,9.434,9.434,0,0,0-1.609,1.836,12.654,12.654,0,0,0-.948,2.274,20.7,20.7,0,0,0-.225,2.445c-.119.776-.316,1.569-.375,2.408-.058.786-.213,1.594-.234,2.429-.018.793.183,1.608.183,2.439s-.129,1.69-.112,2.558c.017.838.206,1.689.206,2.557s-.326,1.732-.342,2.584c-.017.869.11,1.732.11,2.592,0,.829.017,1.642.035,2.432.021.833.165,1.638.221,2.421.06.835.259,1.619.377,2.392a20.147,20.147,0,0,0,.3,2.406,12.232,12.232,0,0,0,1.087,2.164,9.739,9.739,0,0,0,1.072,2.2,9.412,9.412,0,0,0,1.935,1.539,11.758,11.758,0,0,0,2.278.9,16.1,16.1,0,0,0,2.373.508,19.993,19.993,0,0,0,2.388.591c.764.06,1.586-.152,2.452-.152.836,0,1.631.232,2.371.166a19.088,19.088,0,0,0,2.333-.427,14.224,14.224,0,0,0,2.266-.673,10.3,10.3,0,0,0,2.064-1.137A9.314,9.314,0,0,0,372.5,47.85a10.1,10.1,0,0,0,1.211-2.032,13.071,13.071,0,0,0,1-2.147,20.321,20.321,0,0,0,.393-2.331c.129-.748.168-1.533.239-2.341.067-.758.2-1.536.231-2.34.026-.764.061-1.551.061-2.353,0-.707-.2-1.429-.216-2.167-.013-.711.245-1.441.226-2.175M364.534,40.422a2.834,2.834,0,0,1-1.327,1.6,3.039,3.039,0,0,1-1.918.564,3.576,3.576,0,0,1-2.052-.371,2.979,2.979,0,0,1-1.182-1.793,10.821,10.821,0,0,1,.134-2.139c0-1.246-.244-1.246-.244-2.491s.267-1.245.267-2.491-.087-1.243-.087-2.486,0-1.244,0-2.487-.043-1.243-.043-2.486.144-1.242.144-2.483-.118-1.24-.118-2.48.142-1.242.142-2.484c0-.916-.144-1.926.479-2.622a3.221,3.221,0,0,1,2.559-.888,3.159,3.159,0,0,1,2.533.914,3.724,3.724,0,0,1,.583,2.6c0,1.245-.013,1.246.014,2.492s.175,1.245.175,2.49-.309,1.243-.309,2.487.145,1.243.145,2.486.009,1.243.009,2.486.108,1.241.108,2.484.116,1.239.116,2.479-.211,1.243-.211,2.484a10.957,10.957,0,0,1,.082,2.138" fill="#9a0f1e"/>
      <path id="Path_13" data-name="Path 13" d="M299.11,39.676a3.944,3.944,0,0,1-.449,2.016,1.911,1.911,0,0,1-1.81.79,5.843,5.843,0,0,1-2.492-.47,6.039,6.039,0,0,1-2.112-1.472,9.454,9.454,0,0,1-1.225-2.255,15.269,15.269,0,0,1-.947-2.375,23.57,23.57,0,0,1-.357-2.531c-.125-.858-.251-1.708-.3-2.528-.058-.9-.079-1.766-.079-2.54a16.944,16.944,0,0,1,.062-2.291c.077-.68.457-1.4.624-2.207a20.269,20.269,0,0,1,.345-2.268,16.237,16.237,0,0,1,1.107-2.012,11.257,11.257,0,0,1,1.084-1.99,8.328,8.328,0,0,1,1.511-1.733,7.142,7.142,0,0,1,2.058-1.1,8.615,8.615,0,0,1,2.322.03,18.513,18.513,0,0,1,2.307-.057c.816.113,1.525.473,2.232.6a12.664,12.664,0,0,0,2.306.147c1.022,0,1.806-.438,1.806-1.575,0-1.246-.011-1.246-.011-2.494s-.143-1.247-.143-2.495a1.856,1.856,0,0,0-1.324-1.955,12.27,12.27,0,0,0-2.6-.394c-.753-.091-1.609-.3-2.6-.333-.794-.03-1.67.16-2.623.16a21.836,21.836,0,0,0-4.8.282,21.909,21.909,0,0,0-2.233.927,18.574,18.574,0,0,0-2.225.865,17.344,17.344,0,0,0-2.228.961,17.082,17.082,0,0,0-1.879,1.527,17.014,17.014,0,0,0-1.7,1.726,18.433,18.433,0,0,0-1.278,2.05,19.5,19.5,0,0,0-1.064,2.147,22.3,22.3,0,0,0-.73,2.274,23.324,23.324,0,0,0-.858,2.242c-.165.751-.347,1.538-.456,2.36-.1.763-.077,1.573-.127,2.4-.048.771-.054,1.57-.054,2.4s-.008,1.618.035,2.387c.044.822.3,1.594.393,2.357.1.82-.146,1.665,0,2.419.159.811.351,1.6.566,2.337A22.907,22.907,0,0,0,280,40.265a20.285,20.285,0,0,0,1.026,2.178,17.619,17.619,0,0,0,1.441,1.928,17.189,17.189,0,0,0,1.484,1.884,16.46,16.46,0,0,0,1.9,1.468,16.842,16.842,0,0,0,2.07,1.18,18.864,18.864,0,0,0,2.049,1.261,21.415,21.415,0,0,0,2.268.825c.773.205,1.608.173,2.4.3s1.574.351,2.37.411,1.61.089,2.406.089c.673,0,1.426-.276,2.218-.314a17.671,17.671,0,0,0,2.229-.032,9.807,9.807,0,0,0,2.165-.571,5.791,5.791,0,0,0,1.845-1.271,4.933,4.933,0,0,0,1.117-1.917,7.083,7.083,0,0,0,.318-2.2c0-1.23.088-1.23.088-2.46s-.1-1.228-.1-2.456-.026-1.23-.026-2.461-.1-1.231-.1-2.462.271-1.231.271-2.462-.375-1.232-.375-2.464.022-1.234.022-2.467,0-1.234,0-2.467c0-.737.136-1.463-.5-1.958a3.253,3.253,0,0,0-2.068-.5c-1.142,0-1.142-.155-2.285-.155s-1.142.252-2.284.252-1.145-.217-2.29-.217-1.144.072-2.289.072c-1.255,0-2.044-.006-2.482.429-.4.4-.392,1.168-.445,2.454-.029.675-.133,1.5-.133,2.529,0,.316-.081.316-.081.632a3.261,3.261,0,0,0,.531,2.014,2.225,2.225,0,0,0,1.907.885c.669,0,1.288-.127,1.736.215.368.281.532.74.532,1.621,0,1.406.28,1.4.308,2.806s-.124,1.409-.124,2.813" fill="#9a0f1e"/>
      <path id="Path_14" data-name="Path 14" d="M343.355,41.311a2.264,2.264,0,0,0-2.284-1.815,9.194,9.194,0,0,1-2.046.3,2.22,2.22,0,0,1-2.052-.915,7.377,7.377,0,0,1-.564-2.311,11.9,11.9,0,0,1-.331-2.319c0-1.3.331-1.665.927-1.942a7.444,7.444,0,0,0,1.935-1.188,12.344,12.344,0,0,0,1.7-1.57,8.257,8.257,0,0,0,1.194-1.968,9.3,9.3,0,0,0,.6-2.221,18.48,18.48,0,0,0,.176-2.3c.026-.728.079-1.5.079-2.32,0-.8.173-1.607.106-2.383a20.946,20.946,0,0,0-.6-2.312,16.008,16.008,0,0,0-.62-2.271,12.54,12.54,0,0,0-.877-2.2,10.015,10.015,0,0,0-1.584-1.75,9.039,9.039,0,0,0-1.777-1.52,10.178,10.178,0,0,0-2.054-1.243,13.842,13.842,0,0,0-2.374-.411,18.526,18.526,0,0,0-2.389-.016c-1.249,0-1.249-.1-2.5-.1s-1.25.172-2.5.172S324.276,6.7,323.03,6.7s-1.247.043-2.493.043h-2.494a5.432,5.432,0,0,0-2.49.192,3.046,3.046,0,0,0-1.168,2.181,13.048,13.048,0,0,0-.179,2.469c0,1.16.019,1.16.019,2.321s.106,1.16.106,2.32-.042,1.159-.042,2.317-.244,1.159-.244,2.317.137,1.159.137,2.316.064,1.158.064,2.315.146,1.155.146,2.31-.045,1.157-.045,2.314.033,1.158.033,2.315-.3,1.157-.3,2.313-.061,1.158-.061,2.315.289,1.156.289,2.313-.113,1.156-.113,2.313-.122,1.156-.122,2.312.206,1.156.206,2.313c0,.739-.144,1.484-.081,2.159a4.061,4.061,0,0,0,.763,1.971,2.158,2.158,0,0,0,1.8,1.124c1.119,0,1.119-.143,2.239-.143s1.119-.01,2.239-.01a4.376,4.376,0,0,0,2.374-.638,2.7,2.7,0,0,0,1.141-2.023,12.554,12.554,0,0,0,.359-2.44c0-1.122-.226-1.122-.226-2.243s.367-1.121.367-2.243S325.2,40.7,325.2,39.58s-.178-1.12-.178-2.24c0-.506.06-1.7.574-1.7.226,0,.9.582,1.8,2.074a12.284,12.284,0,0,1,1.369,2.352c.272.735.288,1.67.547,2.665a17.478,17.478,0,0,0,.859,2.294A13.7,13.7,0,0,0,331.3,47.2a10.817,10.817,0,0,0,1.568,1.868,9.146,9.146,0,0,0,1.886,1.58,9.206,9.206,0,0,0,2.344.772,10.47,10.47,0,0,0,2.436.412,6.478,6.478,0,0,0,2.562-.513,1.914,1.914,0,0,0,1.239-2.044c0-.876.109-1.711.124-2.494.018-.908.063-1.746.063-2.492a12.86,12.86,0,0,0-.168-2.975m-12.191-17.48a4.889,4.889,0,0,1-.833,2.357,3.131,3.131,0,0,1-2.371.68,4.871,4.871,0,0,1-2.269-.252c-.54-.334-.64-.938-.64-2.093,0-.757.02-1.894.02-3.157,0-.6.13-1.224.115-1.8-.016-.7-.154-1.343-.154-1.793,0-1.2.19-1.769.667-2.153a3.428,3.428,0,0,1,2.261-.545,2.777,2.777,0,0,1,2.345,1.124,6.148,6.148,0,0,1,.889,2.511,14.286,14.286,0,0,1,.2,2.661,12.171,12.171,0,0,1-.231,2.465" fill="#9a0f1e"/>
      <path id="Path_15" data-name="Path 15" d="M409.722,45.9c-.1-.663-.257-1.41-.428-2.284-.132-.681-.311-1.429-.485-2.27-.144-.7-.251-1.466-.423-2.29-.148-.708-.106-1.506-.274-2.318-.149-.716-.577-1.419-.741-2.225q-.221-1.083-.459-2.285c-.146-.728-.167-1.514-.322-2.31-.143-.732-.493-1.454-.644-2.247-.141-.737-.208-1.515-.356-2.306-.139-.741-.009-1.556-.156-2.346-.135-.741-.4-1.481-.544-2.268-.133-.743-.41-1.483-.548-2.268-.132-.747-.165-1.529-.3-2.313-.129-.749-.432-1.484-.567-2.268-.127-.746-.249-1.513-.379-2.294a11.164,11.164,0,0,0-.739-2.308,4.447,4.447,0,0,0-1.381-1.88,3.611,3.611,0,0,0-2.194-1.055c-1.232,0-1.232.188-2.464.188s-1.233-.029-2.466-.029-1.23.019-2.46.019-1.23.1-2.461.1a3.508,3.508,0,0,0-2.256.663,4.574,4.574,0,0,0-1.613,1.842,11.759,11.759,0,0,0-.505,2.421c-.133.786-.2,1.563-.33,2.313-.134.786-.122,1.578-.251,2.326-.135.784-.313,1.538-.442,2.28-.137.788-.239,1.557-.37,2.3-.14.788-.567,1.5-.7,2.237-.142.792-.34,1.544-.474,2.28-.144.794,0,1.607-.134,2.34-.147.8-.4,1.537-.54,2.265-.149.8-.412,1.536-.551,2.258-.154.805-.1,1.6-.237,2.318-.159.813-.45,1.545-.591,2.253-.164.825-.145,1.616-.286,2.313-.169.841-.624,1.535-.762,2.217-.175.868-.183,1.647-.31,2.31-.173.9-.293,1.646-.387,2.292a14.848,14.848,0,0,0-.074,2.322,2.655,2.655,0,0,0,.788,2.078,3.343,3.343,0,0,0,2.061,1.012c.69.085,1.5-.12,2.4-.12,1.5,0,1.5.366,3.005.366a2.386,2.386,0,0,0,1.959-1.284,8.308,8.308,0,0,0,.634-2.221c.176-.729.188-1.526.32-2.274a18.428,18.428,0,0,1,.743-2.19c.286-.984.589-1.828,1.269-1.828,1.279,0,1.279.265,2.559.265s1.279-.087,2.558-.087c.686,0,1.013.656,1.248,1.651a21.6,21.6,0,0,1,.4,2.24c.1.75.053,1.555.2,2.283a6.937,6.937,0,0,0,.835,2.13,2.214,2.214,0,0,0,1.861,1.292c1.7,0,1.7-.137,3.393-.137a22.959,22.959,0,0,0,2.5-.149,4.25,4.25,0,0,0,2.36-.717,2.934,2.934,0,0,0,.854-2.31,18.279,18.279,0,0,0-.335-2.3M396.264,31.468c0,.945-.425.829-2.41.829-2.046,0-2.553.116-2.553-.892a4.507,4.507,0,0,1-.058-.97c.081-.776.433-1.541.509-2.34s-.094-1.613-.019-2.4c.078-.808.422-1.575.506-2.337.088-.833.1-1.636.2-2.369.123-.887.258-1.68.407-2.34.28-1.25.583-2.033,1.011-2.033.444,0,.644.8.911,2.042.144.663.383,1.434.5,2.323.1.735.043,1.546.129,2.382.08.764.294,1.546.372,2.357.077.783.208,1.573.292,2.364s.075,1.606.171,2.377a5.784,5.784,0,0,1,.037,1" fill="#9a0f1e"/>
      <path id="Path_16" data-name="Path 16" d="M426.707,17.453c0-1.581.211-2.017,1.812-2.017.767,0,1.34.16,1.792.16a5.18,5.18,0,0,0,1.9-.312c.6-.241.819-.674.819-1.493,0-1.342.141-1.342.141-2.684s-.118-1.342-.118-2.684A1.555,1.555,0,0,0,432.11,6.9a4.581,4.581,0,0,0-1.929-.339h-2.516c-1.259,0-1.259.087-2.519.087s-1.26-.266-2.521-.266-1.26.243-2.522.243-1.26-.277-2.522-.277-1.263.122-2.526.122-1.264.176-2.526.176a4.168,4.168,0,0,0-1.848.425c-.652.312-1.348.656-1.348,1.352,0,1.342.227,1.342.227,2.684s-.212,1.342-.212,2.684a1.655,1.655,0,0,0,1.123,1.565,5.636,5.636,0,0,0,1.928.153c.77,0,1.407-.075,1.854-.075,1.345,0,1.869.438,1.869,2.019,0,1.2-.309,1.2-.309,2.4s.173,1.2.173,2.4-.145,1.2-.145,2.4.207,1.2.207,2.4-.122,1.2-.122,2.4-.114,1.2-.114,2.4.291,1.2.291,2.4-.062,1.2-.062,2.4-.3,1.2-.3,2.406.033,1.2.033,2.407-.044,1.2-.044,2.409.146,1.206.146,2.411a12.889,12.889,0,0,0,.213,2.468,2.706,2.706,0,0,0,1.341,1.906,4.131,4.131,0,0,0,2.32.758c1.6,0,1.6.042,3.2.042a4.548,4.548,0,0,0,2.274-.58,2.752,2.752,0,0,0,1.3-1.852,11.768,11.768,0,0,0,.294-2.3c.016-1.219-.188-1.219-.188-2.439s.373-1.22.373-2.44,0-1.219,0-2.439-.043-1.22-.043-2.44.009-1.22.009-2.44-.174-1.218-.174-2.436.1-1.219.1-2.44-.141-1.221-.141-2.442-.13-1.221-.13-2.442.276-1.222.276-2.443.108-1.228.079-2.451-.272-1.22-.272-2.443" fill="#9a0f1e"/>
      <path id="Path_17" data-name="Path 17" d="M435.837,19.6a11.523,11.523,0,0,0,.2,2.355,9.877,9.877,0,0,0,.665,2.277,13.168,13.168,0,0,0,1.273,2.012c.435.6,1.039,1.12,1.607,1.755.495.555.936,1.22,1.533,1.826.525.531,1.171,1,1.776,1.592.54.526,1.012,1.181,1.617,1.764.72.7,1.34,1.277,1.822,1.811a12.879,12.879,0,0,1,1.566,2.04,4.375,4.375,0,0,1,.7,2.456,3.11,3.11,0,0,1-1.665,2.3,5.127,5.127,0,0,1-2.674,1.14,14.307,14.307,0,0,1-2.244-.412,22.558,22.558,0,0,1-2.237-.31A8.793,8.793,0,0,0,437.545,42c-1.728,0-2.187.642-2.187,1.4,0,1.216-.367,1.216-.367,2.432s.226,1.215.226,2.431a2.485,2.485,0,0,0,1.353,2.219,9.951,9.951,0,0,0,2.6.774,22.254,22.254,0,0,0,2.671.263c.867.071,1.769.094,2.678.094.652,0,1.338-.17,2.046-.223.691-.051,1.418.18,2.085.083a17.978,17.978,0,0,0,1.991-.561,10.7,10.7,0,0,0,2.045-.588,14.667,14.667,0,0,0,1.749-1.213,10.987,10.987,0,0,0,1.711-1.242,10.383,10.383,0,0,0,1.445-1.568,8.817,8.817,0,0,0,.916-2.62,12.662,12.662,0,0,0,.525-2.692c.068-.9.369-1.815.369-2.766a20,20,0,0,0-.164-2.373,14.911,14.911,0,0,0-.42-2.345,14.827,14.827,0,0,0-.979-2.171,16.73,16.73,0,0,0-1.226-2.021,22.813,22.813,0,0,0-1.527-1.8c-.478-.57-.827-1.31-1.417-1.906-.525-.53-1.073-1.107-1.7-1.662-.56-.5-1.232-.935-1.878-1.459a19.548,19.548,0,0,1-1.542-1.34,5.378,5.378,0,0,1-1.164-1.655,4.787,4.787,0,0,1-.536-1.978,2.23,2.23,0,0,1,1.016-1.8,2.665,2.665,0,0,1,1.9-.522,14.886,14.886,0,0,1,2.581.248,20.213,20.213,0,0,0,2.6.413c.255,0,.255-.172.511-.172,2.176,0,2.536-1.2,2.536-1.9,0-1.215-.141-1.215-.141-2.431s-.13-1.215-.13-2.43a1.925,1.925,0,0,0-1.362-1.809,10.594,10.594,0,0,0-2.392-.737c-.736-.126-1.594-.019-2.491-.079-.775-.05-1.6-.207-2.479-.207-.752,0-1.579.02-2.426.094a18.448,18.448,0,0,0-2.344.641,12.156,12.156,0,0,0-2.347.571,9.754,9.754,0,0,0-2.1,1.217,9.35,9.35,0,0,0-1.662,1.772,10.621,10.621,0,0,0-1.17,2.117,13.683,13.683,0,0,0-.739,2.3,18.033,18.033,0,0,0-.47,2.372c-.073.75.1,1.565.1,2.42" fill="#9a0f1e"/>
      <path id="Path_18" data-name="Path 18" d="M497.126,21.067c-.511,1.136-.908,1.794-1.355,1.794s-.734-.706-1.244-1.842c-.485-1.113-.53-1.094-1.009-2.211s-.607-1.063-1.087-2.179-.35-1.172-.83-2.288-.587-1.073-1.068-2.192-.346-1.176-.829-2.293A8.542,8.542,0,0,0,488.535,7.9a3.651,3.651,0,0,0-1.822-1.3,7.709,7.709,0,0,0-2.261-.163c-1.7,0-1.7-.266-3.393-.266a4.243,4.243,0,0,0-2.358.771,2.972,2.972,0,0,0-1.508,1.922,13.878,13.878,0,0,0-.03,2.507c0,1.156.176,1.156.176,2.313s.062,1.155.062,2.311-.368,1.158-.368,2.314.227,1.156.227,2.312-.213,1.158-.213,2.316.116,1.156.116,2.313.109,1.157.109,2.314.01,1.158.01,2.315.144,1.155.144,2.31-.309,1.157-.309,2.314.174,1.158.174,2.316-.145,1.158-.145,2.316.206,1.16.206,2.318-.122,1.161-.122,2.321-.114,1.16-.114,2.321a12.421,12.421,0,0,0,.437,2.439,2.614,2.614,0,0,0,1.164,1.97,4.2,4.2,0,0,0,2.342.814c1.6,0,1.6-.032,3.2-.032a4.944,4.944,0,0,0,2.506-.525,3.108,3.108,0,0,0,1.218-2.187,13.391,13.391,0,0,0,.087-2.479c0-1.236-.137-1.236-.137-2.474s.244-1.238.244-2.477.041-1.24.041-2.48-.106-1.24-.106-2.48-.018-1.241-.018-2.481.03-1.242.03-2.486-.191-1.242-.191-2.484c0-.379.292-.423.483-.423.129,0,.2.138.39.516.357.709.722,1.355,1.028,1.98.353.722.664,1.392.958,2.01.353.743.822,1.34,1.1,1.943.364.777.585,1.488.863,2.058a12.052,12.052,0,0,0,1.206,1.875,1.871,1.871,0,0,0,1.807.925,1.954,1.954,0,0,0,1.921-.856,13.942,13.942,0,0,0,1.152-1.927c.276-.569.4-1.323.767-2.1.281-.6.715-1.215,1.07-1.956.3-.616.618-1.281.973-2,.307-.625.392-1.412.753-2.118a.881.881,0,0,1,.72-.517c.19,0,.224.21.224.589,0,1.237.027,1.237.027,2.473s.023,1.239.023,2.478,0,1.24,0,2.479-.088,1.241-.088,2.481.1,1.24.1,2.481.025,1.243.025,2.485.1,1.242.1,2.485a14.377,14.377,0,0,0-.118,2.507,2.893,2.893,0,0,0,1.557,1.834,4.144,4.144,0,0,0,2.3.531h3.2a4.506,4.506,0,0,0,2.372-.424,2.758,2.758,0,0,0,1.255-1.989,12.741,12.741,0,0,0,.3-2.46c0-1.156-.253-1.156-.253-2.314s.218-1.155.218-2.311-.071-1.156-.071-2.313.079-1.157.079-2.313-.175-1.157-.175-2.315.1-1.156.1-2.314.081-1.157.081-2.314-.115-1.157-.115-2.314.229-1.156.229-2.311-.137-1.157-.137-2.313.05-1.158.05-2.316-.307-1.159-.307-2.317.393-1.159.393-2.317-.142-1.161-.142-2.322.148-1.16.148-2.32a12.676,12.676,0,0,0-.376-2.469,3.045,3.045,0,0,0-1.159-2.188,5.193,5.193,0,0,0-2.5-.324c-1.727,0-1.727-.025-3.453-.025a7.85,7.85,0,0,0-2.282.128,3.758,3.758,0,0,0-1.717,1.442,7.721,7.721,0,0,0-1.366,1.842c-.48,1.116-.134,1.263-.612,2.38s-.648,1.045-1.127,2.161-.584,1.073-1.063,2.19-.372,1.164-.825,2.294-.423,1.145-.909,2.261" fill="#9a0f1e"/>
      <path id="Path_19" data-name="Path 19" d="M531.329,11.374a13.113,13.113,0,0,0-.124-2.462A2.873,2.873,0,0,0,530,6.83a4.683,4.683,0,0,0-2.425-.489c-1.6,0-1.6.138-3.2.138a4.651,4.651,0,0,0-2.4.4,2.761,2.761,0,0,0-1.155,2.051,12.611,12.611,0,0,0-.291,2.446c0,1.157.043,1.157.043,2.313s0,1.157,0,2.312.087,1.157.087,2.313-.268,1.157-.268,2.313.245,1.158.245,2.315-.279,1.156-.279,2.313.122,1.158.122,2.315.178,1.157.178,2.314.06,1.155.06,2.31-.366,1.158-.366,2.314.226,1.159.226,2.317-.212,1.158-.212,2.317.114,1.158.114,2.316.11,1.161.11,2.322.01,1.16.01,2.321a12.5,12.5,0,0,0,.291,2.434c.168.85.269,1.7,1.025,2.168a4.966,4.966,0,0,0,2.461.382c1.6,0,1.6.143,3.2.143a4.2,4.2,0,0,0,2.34-.726,2.752,2.752,0,0,0,1.339-1.932,12.893,12.893,0,0,0,.263-2.469c0-1.157-.29-1.157-.29-2.314s.062-1.156.062-2.312.3-1.156.3-2.313-.033-1.156-.033-2.312.045-1.158.045-2.315-.147-1.157-.147-2.313-.063-1.157-.063-2.315-.137-1.157-.137-2.314.244-1.156.244-2.311.041-1.157.041-2.314-.106-1.158-.106-2.316-.018-1.158-.018-2.317.028-1.159.028-2.317-.161-1.157-.189-2.317.078-1.165.078-2.325" fill="#9a0f1e"/>
      <path id="Path_20" data-name="Path 20" d="M550.376,42.2a1.853,1.853,0,0,1-1.8-1.319,7.424,7.424,0,0,1-.144-2.3c0-1.236-.054-1.236-.054-2.472s-.139-1.236-.139-2.471.141-1.237.141-2.473-.118-1.236-.118-2.472.143-1.235.143-2.469-.043-1.235-.043-2.471,0-1.237,0-2.475-.088-1.237-.088-2.474.268-1.238.268-2.476-.244-1.24-.244-2.479.278-1.241.278-2.48a13.047,13.047,0,0,0-.273-2.485,2.826,2.826,0,0,0-1.4-1.928,4.376,4.376,0,0,0-2.344-.461c-1.6,0-1.6-.365-3.2-.365a4.366,4.366,0,0,0-2.389.76A3.006,3.006,0,0,0,537.5,8.869a13.822,13.822,0,0,0-.039,2.5c0,1.157.11,1.157.11,2.314s.01,1.156.01,2.311.144,1.157.144,2.313-.309,1.157-.309,2.314.173,1.157.173,2.314-.144,1.156-.144,2.313.206,1.158.206,2.315-.121,1.157-.121,2.314-.115,1.155-.115,2.311.291,1.157.291,2.314-.061,1.158-.061,2.316-.3,1.159-.3,2.317.033,1.158.033,2.317-.045,1.16-.045,2.321.147,1.16.147,2.321a12.988,12.988,0,0,0,.212,2.469,2.708,2.708,0,0,0,1.342,1.906,4.127,4.127,0,0,0,2.32.758c1.2,0,1.2.04,2.405.04s1.2-.1,2.408-.1,1.205-.02,2.408-.02,1.205.03,2.409.03,1.206-.189,2.413-.189,1.206.371,2.413.371a4.972,4.972,0,0,0,2.52-.573,3.237,3.237,0,0,0,1.333-2.184,13.475,13.475,0,0,0,.162-2.5c0-.41-.174-.41-.174-.821a3.963,3.963,0,0,0-.52-2.549,3.2,3.2,0,0,0-2.49-.7c-.606,0-1.245.153-2.082.181-.583.019-1.269-.234-2.092-.22-.611.01-1.3.21-2.094.21" fill="#9a0f1e"/>
      <path id="Path_21" data-name="Path 21" d="M576.33,42.2a1.85,1.85,0,0,1-1.8-1.319,7.365,7.365,0,0,1-.146-2.3c0-1.236-.054-1.236-.054-2.472s-.139-1.236-.139-2.471.141-1.237.141-2.473-.118-1.236-.118-2.472.143-1.235.143-2.469-.043-1.235-.043-2.471,0-1.237,0-2.475-.088-1.237-.088-2.474.268-1.238.268-2.476-.244-1.24-.244-2.479.278-1.241.278-2.48a13.047,13.047,0,0,0-.273-2.485,2.826,2.826,0,0,0-1.4-1.928,4.374,4.374,0,0,0-2.343-.461c-1.6,0-1.6-.365-3.2-.365a4.367,4.367,0,0,0-2.39.76,3,3,0,0,0-1.469,1.974,13.822,13.822,0,0,0-.039,2.5c0,1.157.11,1.157.11,2.314s.01,1.156.01,2.311.144,1.157.144,2.313-.309,1.157-.309,2.314.173,1.157.173,2.314-.144,1.156-.144,2.313.206,1.158.206,2.315-.121,1.157-.121,2.314-.115,1.155-.115,2.311.291,1.157.291,2.314-.062,1.158-.062,2.316-.295,1.159-.295,2.317.033,1.158.033,2.317-.045,1.16-.045,2.321.147,1.16.147,2.321a12.993,12.993,0,0,0,.212,2.469,2.708,2.708,0,0,0,1.342,1.906,4.128,4.128,0,0,0,2.321.758c1.2,0,1.2.04,2.4.04s1.2-.1,2.409-.1,1.2-.02,2.408-.02,1.2.03,2.408.03,1.206-.189,2.412-.189,1.207.371,2.414.371a4.972,4.972,0,0,0,2.52-.573A3.237,3.237,0,0,0,585.62,48.6a13.56,13.56,0,0,0,.162-2.5c0-.41-.174-.41-.174-.821a3.963,3.963,0,0,0-.52-2.549,3.2,3.2,0,0,0-2.49-.7c-.607,0-1.245.153-2.082.181-.583.019-1.269-.234-2.091-.22-.612.01-1.3.21-2.095.21" fill="#9a0f1e"/>
      <path id="Path_22" data-name="Path 22" d="M38.752,21.5c0-.529.01-.529.01-1.059a.48.48,0,0,0-.465-.5c-.372,0-.372.023-.744.023a.429.429,0,0,0-.422.479c0,.53-.061.53-.061,1.059a.437.437,0,0,0,.483.43c.372,0,.372.061.744.061a.462.462,0,0,0,.455-.491" fill="#9a0f1e"/>
      <path id="Path_23" data-name="Path 23" d="M41.06,21.5c0-.529.011-.529.011-1.059a.481.481,0,0,0-.465-.5c-.372,0-.372.023-.744.023a.429.429,0,0,0-.423.479c0,.53-.061.53-.061,1.059a.437.437,0,0,0,.484.43c.372,0,.372.061.744.061a.462.462,0,0,0,.454-.491" fill="#9a0f1e"/>
      <path id="Path_24" data-name="Path 24" d="M72.879,36.138c0,.508.077.508.077,1.015s.053.508.053,1.015c0,.271-.3.449-.57.449-.508,0-.508.106-1.016.106s-.508-.116-1.016-.116a.438.438,0,0,1-.477-.439c0-.508,0-.508,0-1.017s-.018-.508-.018-1.017.062-.508.062-1.016-.051-.507-.051-1.015.061-.508.061-1.015a.43.43,0,0,1,.422-.483c.508,0,.508-.024,1.016-.024s.508.042,1.016.042a.439.439,0,0,1,.454.465c0,.508.107.506.118,1.015s-.159.511-.159,1.019.027.508.027,1.016m-4.761-7.127c-.465,0-.465.106-.929.106S66.724,29,66.26,29s-.464.038-.927.038a.467.467,0,0,1-.476-.477c0-.464-.019-.464-.019-.929s.062-.464.062-.929-.051-.464-.051-.927a.432.432,0,0,1,.484-.423c.464,0,.464-.06.928-.06s.465-.024.929-.024.464.042.928.042a.439.439,0,0,1,.454.465c0,.464-.026.465-.015.93s.077.463.077.928.053.463.053.927c0,.271-.3.449-.569.449M67.1,36.432c-.372,0-.372.052-.744.052A.431.431,0,0,1,65.931,36c0-.372-.06-.372-.06-.744a.5.5,0,0,1,.482-.506c.372,0,.372.041.744.041a.439.439,0,0,1,.454.465c0,.372.019.372.04.744a.447.447,0,0,1-.494.432m-3.883-.294c0,.508.077.508.077,1.015s.052.508.052,1.015c0,.271-.3.449-.569.449-.508,0-.508.106-1.017.106s-.507-.116-1.015-.116a.438.438,0,0,1-.477-.439V37.151c0-.508-.018-.508-.018-1.017s.062-.508.062-1.016-.051-.507-.051-1.015.061-.508.061-1.015a.431.431,0,0,1,.423-.483c.508,0,.508-.024,1.015-.024s.509.042,1.017.042a.439.439,0,0,1,.454.465c0,.508.106.506.118,1.015s-.159.511-.159,1.019.027.508.027,1.016m-4.591,10.8c0,.562.077.562.077,1.125a.586.586,0,0,1-.517.569c-.464,0-.464-.121-.929-.121s-.464.107-.929.107-.464-.116-.927-.116a.438.438,0,0,1-.477-.439c0-.564,0-.564,0-1.127s-.019-.563-.019-1.127.062-.562.062-1.124-.051-.563-.051-1.125a.431.431,0,0,1,.484-.422c.464,0,.464-.06.929-.06s.464-.024.929-.024.463.041.927.041a.439.439,0,0,1,.454.465c0,.563.106.561.119,1.125s-.16.565-.16,1.128.027.563.027,1.125M58.131,36a.483.483,0,0,1-.506.465c-.372,0-.372-.011-.744-.011A.464.464,0,0,1,56.386,36c0-.372.062-.372.062-.744a.438.438,0,0,1,.433-.483c.372,0,.372.061.744.061a.43.43,0,0,1,.482.422c0,.372.024.372.024.744M54.914,25.777a.432.432,0,0,1,.484-.423c.465,0,.465-.06.929-.06s.464-.024.929-.024.464.042.928.042a.439.439,0,0,1,.453.465c0,.464-.026.465-.014.93s.077.463.077.928.053.463.053.927c0,.271-.3.449-.569.449-.465,0-.465.106-.929.106S56.79,29,56.325,29s-.464.038-.927.038a.467.467,0,0,1-.476-.477c0-.464-.019-.464-.019-.929s.062-.464.062-.929-.051-.464-.051-.927M41.407,41.322c-.585,0-.585.1-1.169.1s-.584-.16-1.168-.16-.583.027-1.166.027-.583.077-1.166.077a.587.587,0,0,1-.57-.516c0-.533.121-.533.121-1.065s-.106-.532-.106-1.064.116-.531.116-1.062-.038-.531-.038-1.062,0-.531,0-1.062-.019-.53-.019-1.061.063-.529.063-1.059a.438.438,0,0,1,.432-.484c.584,0,.584.061,1.168.061s.584-.06,1.168-.06.583-.024,1.166-.024.583.042,1.167.042a.439.439,0,0,1,.453.465c0,.532-.005.532.007,1.065s.076.531.076,1.063-.134.531-.134,1.062.062.531.062,1.063,0,.53,0,1.061.048.531.048,1.061.05.53.05,1.06a.549.549,0,0,1-.566.474M75.3,49.577c0-.519-.076-.519-.076-1.038s.135-.519.135-1.038-.063-.518-.063-1.037,0-.518,0-1.036-.047-.518-.047-1.035-.05-.519-.05-1.037.092-.518.092-1.037-.1-.518-.1-1.036.16-.518.16-1.036-.027-.518-.027-1.036-.077-.518-.077-1.037-.053-.517-.053-1.035.121-.518.121-1.036-.106-.518-.106-1.035.116-.517.116-1.035-.038-.517-.038-1.035V31.963c0-.517-.018-.517-.018-1.034s.062-.517.062-1.034-.051-.516-.051-1.033.062-.518.062-1.036-.06-.517-.06-1.034-.024-.517-.024-1.033.041-.518.041-1.036.011-.517.011-1.035c0-.1-.121-.106-.225-.106-.52,0-.52-.015-1.041-.015s-.52-.1-1.04-.1-.52-.031-1.04-.031-.519.055-1.038.055-.519-.06-1.039-.06l-1.038,0c-.518,0-.518,0-1.036,0s-.519.014-1.038.014-.519.088-1.037.088-.519-.032-1.038-.032-.519.021-1.038.021-.519-.042-1.037-.042-.519.091-1.038.091-.518-.1-1.036-.1-.519.082-1.038.082-.518-.015-1.036-.015-.518,0-1.036,0-.518.011-1.036.011-.519.012-1.037.012-.518-.107-1.035-.107-.517,0-1.035,0-.517.1-1.035.1-.518-.03-1.037-.03-.518.026-1.035.026-.517.028-1.034.028-.519-.031-1.038-.031-.518-.012-1.036-.012-.518-.035-1.035-.035-.519.077-1.037.077-.519-.069-1.037-.069-.518-.029-1.036-.029-.9-.109-1.04.069c-.112.148-.053.5-.053,1.045s-.018.549-.018,1.1.021.549.021,1.1-.015.548-.015,1.1.133.548.133,1.1-.089.548-.089,1.095.2.469-.2.849-.345.172-.911.172-.566.034-1.132.034-.564-.025-1.128-.025-.565.025-1.129.025-.562.229-.967-.165-.122-.346-.122-.895-.122-.549-.122-1.1.064-.548.064-1.1-.06-.548-.06-1.1.036-.548.036-1.1-.05-.547-.05-1.095.131-.978.076-1.064c-.128-.2-.455-.08-.925-.08s-.47-.03-.94-.03-.469.034-.939.034-.468-.023-.936-.023a.324.324,0,0,0-.253.258c0,.52.066.52.066,1.04s.078.519.078,1.039-.138.519-.138,1.038.1.519.1,1.038-.1.518-.1,1.037.06.518.06,1.036-.077.518-.077,1.035.04.519.04,1.037.045.518.045,1.037-.091.518-.091,1.036.059.518.059,1.037.1.517.1,1.035-.007.519-.007,1.037-.107.517-.107,1.035.116.518.116,1.036-.111.518-.111,1.035.016.517.016,1.035.064.517.064,1.035-.049.518-.049,1.035-.079.517-.079,1.034.163.517.163,1.034-.127.517-.127,1.034.074.517.074,1.035-.054.517-.054,1.035-.011.516-.011,1.032.1.518.1,1.036-.089.518-.089,1.035c0,.1.1.105.2.105.471,0,.471.064.942.064s.471-.061.942-.061.47.17.941.17.468-.12.937-.133c0-.025-.028-.007-.028-.033,0-.513-.059-.513-.059-1.026s.1-.513.1-1.026-.05-.512-.05-1.024.036-.512.036-1.024.044-.512.044-1.024-.077-.511-.077-1.022.035-.511.035-1.022-.031-.511-.031-1.022c0-.271.244-.421.515-.421.584,0,.584-.11,1.168-.11s.584.068,1.168.068.583,0,1.166,0,.583.046,1.167.046a.368.368,0,0,1,.412.413c0,.512-.01.512-.01,1.025s.163.513.163,1.026-.118.512-.118,1.024.045.512.045,1.024.011.512.011,1.024.044.511.044,1.023-.038.51-.038,1.021,0,.512,0,1.023c0,.026-.023.021-.027.046.521.013.52-.012,1.04-.012s.521.023,1.042.023.519.089,1.039.089.519-.121,1.039-.121h1.039c.519,0,.519.057,1.038.057s.518-.089,1.036-.089.519.034,1.038.034.519.12,1.038.12.519-.056,1.038-.056.519-.061,1.038-.061.519.044,1.038.044.518-.075,1.037-.075.519,0,1.037,0,.519-.019,1.038-.019H58.5c.518,0,.518.162,1.035.162s.519-.083,1.037-.083.519.013,1.037.013.518-.008,1.036-.008.517-.046,1.034-.046.518.018,1.035.018.519.106,1.038.106.518-.06,1.036-.06.517-.027,1.034-.027.518-.064,1.037-.064.519.02,1.037.02.518-.015,1.036-.015.518.128,1.036.128.519.027,1.037.027.519-.126,1.037-.126.518.05,1.036.05c.1,0,.244-.088.244-.192,0-.52-.089-.52-.089-1.04s.063-.519.063-1.039" fill="#9a0f1e"/>
      <path id="Path_25" data-name="Path 25" d="M38.744,21.543c0-.533.011-.533.011-1.064a.484.484,0,0,0-.465-.507c-.372,0-.372.024-.745.024a.431.431,0,0,0-.422.483c0,.531-.061.531-.061,1.064a.438.438,0,0,0,.483.433c.373,0,.373.062.745.062a.464.464,0,0,0,.454-.5" fill="#9a0f1e"/>
      <path id="Path_26" data-name="Path 26" d="M41.053,21.543c0-.533.01-.533.01-1.064a.484.484,0,0,0-.465-.507c-.371,0-.371.024-.744.024a.431.431,0,0,0-.423.483c0,.531-.061.531-.061,1.064a.438.438,0,0,0,.484.433c.373,0,.373.062.744.062a.465.465,0,0,0,.455-.5" fill="#9a0f1e"/>
      <path id="Path_27" data-name="Path 27" d="M.052,43.606c0,.5-.011.5-.011,1.008S0,45.117,0,45.62s.024.5.024,1.007.06.505.06,1.009-.061.5-.061,1.009.051.5.051,1.009-.063.505-.063,1.01.019.506.019,1.011c0,.1.051.174.132.174.562,0,.562-.038,1.125-.038s.563.116,1.125.116.564-.106,1.128-.106.563.121,1.127.121c.08,0,.172-.163.172-.267,0-.523-.077-.523-.077-1.046s-.026-.523-.026-1.047.159-.523.159-1.046-.1-.523-.1-1.047.092-.523.092-1.046-.05-.523-.05-1.045-.048-.524-.048-1.047,0-.524,0-1.047-.062-.524-.062-1.048.134-.524.134-1.048-.076-.525-.076-1.05.063-.525.063-1.049c0-.147-.122-.193-.22-.118-.386.3-.418.263-.8.567s-.416.265-.8.568-.309.4-.695.707-.4.284-.79.589-.465.2-.854.509a1.9,1.9,0,0,0-.547.76,2.411,2.411,0,0,0-.083.915" fill="#9a0f1e"/>
      <path id="Path_28" data-name="Path 28" d="M25.323,45.554c0,.464.076.464.076.929a.586.586,0,0,1-.516.57c-.522,0-.522-.121-1.044-.121s-.523.106-1.045.106-.521-.116-1.043-.116a.437.437,0,0,1-.476-.439V45.55c0-.467-.018-.467-.018-.933s.062-.466.062-.932-.051-.464-.051-.929a.431.431,0,0,1,.483-.422c.522,0,.522-.06,1.045-.06s.522-.024,1.044-.024.521.041,1.043.041a.439.439,0,0,1,.454.465c0,.467.106.464.119.931s-.16.469-.16.935.027.466.027.932m-4.144-9.373c-.012-.466.159-.468.159-.935s-.026-.466-.026-.931-.077-.465-.077-.93a.586.586,0,0,1,.516-.569c.522,0,.522.121,1.044.121s.523-.107,1.045-.107.521.116,1.043.116a.437.437,0,0,1,.476.439v.933c0,.467.018.467.018.933s-.062.466-.062.932.051.465.051.929a.431.431,0,0,1-.483.423c-.523,0-.523.06-1.045.06s-.522.024-1.044.024-.522-.042-1.043-.042a.44.44,0,0,1-.454-.465c0-.466-.106-.464-.118-.931M21.338,25.9c0-.466-.026-.466-.026-.932s-.077-.465-.077-.929a.587.587,0,0,1,.516-.57c.522,0,.522.121,1.044.121s.523-.106,1.045-.106.521.116,1.043.116a.437.437,0,0,1,.476.439v.933c0,.466.018.466.018.933s-.062.466-.062.931.051.465.051.93a.43.43,0,0,1-.483.422c-.523,0-.523.06-1.045.06s-.522.024-1.044.024-.522-.041-1.043-.041a.44.44,0,0,1-.454-.465c0-.467-.106-.464-.118-.931s.159-.469.159-.935m9.476,20.542c0-.523,0-.523,0-1.045s-.048-.522-.048-1.044-.05-.523-.05-1.046.092-.523.092-1.046-.1-.522-.1-1.045.16-.523.16-1.046-.027-.522-.027-1.045-.077-.522-.077-1.045-.053-.522-.053-1.044.121-.523.121-1.045-.106-.523-.106-1.045.116-.521.116-1.043-.038-.522-.038-1.045,0-.522,0-1.044-.019-.522-.019-1.043.062-.521.062-1.042-.051-.522-.051-1.043.061-.523.061-1.045-.06-.522-.06-1.043-.024-.521-.024-1.042.042-.522.042-1.045.175-.561.008-1.056-.242-.476-.616-.854a5.4,5.4,0,0,1-.676-.773c-.314-.41-.375-.363-.689-.772s-.2-.492-.517-.9-.392-.349-.7-.758-.237-.467-.55-.876-.361-.371-.674-.779-.252-.455-.565-.864-.344-.383-.656-.79-.347-.381-.659-.788-.242-.464-.555-.872-.36-.372-.672-.78-.393-.348-.706-.756-.306-.412-.619-.82-.228-.473-.541-.882-.4-.337-.717-.745-.224-.475-.537-.882-.327-.4-.637-.806a1.106,1.106,0,0,0-.935-.4,1.09,1.09,0,0,0-.923.412c-.314.412-.38.361-.7.771s-.186.51-.5.92-.416.332-.732.742-.257.453-.573.861-.357.376-.673.785-.324.4-.639.811-.232.472-.546.88-.386.354-.7.763-.237.467-.551.875-.365.368-.68.775-.266.446-.581.855-.45.3-.765.712-.209.49-.524.9-.332.394-.647.8-.267.445-.583.853-.393.347-.708.755-.275.438-.589.845-.493.308-.658.8S6.28,24,6.28,24.52s.076.524.076,1.049-.035.523-.035,1.047.032.523.032,1.046-.1.524-.1,1.047.109.522.109,1.045S6.3,30.276,6.3,30.8s0,.523,0,1.046-.046.523-.046,1.045,0,.523,0,1.046-.009.523-.009,1.045.163.523.163,1.045-.118.523-.118,1.046.045.522.045,1.044.011.522.011,1.045.044.522.044,1.044-.038.522-.039,1.044,0,.522,0,1.044.01.522.01,1.045.012.521.012,1.043-.023.521-.023,1.042-.089.521-.089,1.043.12.522.12,1.044v1.044c0,.521-.057.521-.057,1.042s.089.522.089,1.044-.034.522-.034,1.044c0,.1.036.261.14.261.525,0,.525-.056,1.05-.056s.526-.062,1.051-.062.525.045,1.049.045.524-.075,1.049-.075.524,0,1.048,0,.524-.018,1.048-.018h1.046c.524,0,.524.162,1.047.162s.524-.082,1.048-.082.524.013,1.047.013.524-.009,1.048-.009.523-.045,1.047-.045.523.018,1.048.018.522.1,1.045.1.524-.059,1.047-.059.524-.028,1.047-.028.523-.063,1.045-.063.524.019,1.047.019.523-.014,1.046-.014.522.128,1.045.128.522.027,1.044.027.523-.126,1.045-.126.523.05,1.047.05c.1,0,.245-.088.245-.193,0-.524-.09-.524-.09-1.048s.062-.524.062-1.049-.075-.523-.075-1.047.134-.523.134-1.046-.062-.524-.062-1.047" fill="#9a0f1e"/>
      <path id="Path_29" data-name="Path 29" d="M74.288,6.492c-.482,0-.482-.011-.964-.011s-.483-.041-.966-.041-.483.024-.966.024-.482.06-.965.061-.484-.061-.968-.061-.853.19-1.01.032.047-.582.047-1.125-.019-.543-.019-1.086,0-.544,0-1.087-.038-.544-.038-1.088.116-.544.116-1.088a.965.965,0,0,0-1.006-.9c-.47,0-.47-.121-.942-.121s-.47.053-.941.053a.923.923,0,0,0-.891.968c0,.543.027.543.027,1.086s-.16.543-.16,1.086.1.544.1,1.087-.092.544-.092,1.088.251.894.057,1.071c-.178.163-.494.039-1.007.04s-.514,0-1.028,0-.513.063-1.027.063-.514-.134-1.028-.134-.515.075-1.03.075-.856.14-1-.052c-.211-.272-.08-.52-.08-1.063s.052-.544.052-1.087.05-.543.05-1.087-.126-.544-.126-1.089.027-.544.027-1.088A.965.965,0,0,0,57.616,0c-.472,0-.472.015-.942.015S56.2,0,55.732,0a1.028,1.028,0,0,0-.958,1.022c0,.543.028.543.028,1.086s.059.544.059,1.087-.106.544-.106,1.087-.018.545-.018,1.089.121.915-.016,1.054c-.187.189-.41.036-.889.036s-.48-.013-.96-.013-.48.083-.96.083-.48-.162-.96-.162h-.961c-.481,0-.481.019-.962.019A1.073,1.073,0,0,0,48.011,7.4c0,.473.084.682-.053.845-.169.2-.382.055-.893.055s-.51.062-1.021.062-.51.056-1.021.056S44.511,8.3,44,8.3s-.511-.035-1.022-.035-.51.089-1.02.089S41.447,8.3,40.936,8.3H39.914c-.512,0-.512.12-1.023.12s-.511-.089-1.022-.089-.511-.022-1.022-.022-.512.011-1.024.011-.511.011-1.022.011H33.777c-.511,0-.511-.039-1.023-.039s-.512.044-1.024.044-.512.011-1.024.011-.511.046-1.023.046-.512-.118-1.024-.118-.512.163-1.023.163-.512-.01-1.023-.01H25.588c-.512,0-.512-.046-1.025-.046s-.513,0-1.025,0-.514-.067-1.027-.067-.514.11-1.027.11c-.163,0-.274.131-.175.26.311.4.335.384.646.787s.284.426.6.83.372.358.683.761.277.431.588.836.284.426.6.83.351.374.663.778.233.466.545.871.361.369.673.775.17.6.623.837c.4.213.476-.129.932-.129s.458.171.915.171.459-.062.917-.062.458.065.917.065c.248,0,.465.118.465.367,0,.488-.089.488-.089.975s.1.488.1.976-.011.488-.011.976-.054.489-.054.978a3.089,3.089,0,0,0,.073.969.74.74,0,0,0,.18.436.991.991,0,0,0,.828.253c.517,0,.517.08,1.035.08s.518.049,1.036.049.519-.064,1.038-.064.839.118,1.017-.007c.245-.172.1-.545.1-1.108s-.116-.564-.116-1.128.107-.564.107-1.129-.206-.574,0-1.1c.221-.555.311-.486.712-.93s.357-.484.757-.928.469-.384.87-.829a.508.508,0,0,1,.734-.038c.315.333.344.306.659.639s.259.387.575.721.36.293.676.628.4.287.553.721a2.236,2.236,0,0,1,.1,1.113c0,.564-.137.564-.137,1.127s.077.565.077,1.129-.087.951.049,1.085c.154.152.473-.025.994-.025s.521.023,1.042.023.521-.034,1.043-.034.521.03,1.042.03.521,0,1.042,0,.521.144,1.042.144.522-.05,1.043-.05.52.036,1.04.036.521-.06,1.041-.06.522.064,1.043.064S52.837,22,53.357,22s.52.125,1.04.125S54.918,22,55.438,22s.522-.026,1.043-.026S57,22,57.523,22s.521-.034,1.042-.034.521.016,1.042.016.522.031,1.044.031.521.089,1.042.089.522-.133,1.043-.133.522.015,1.043.015.522-.021,1.044-.021.522.017,1.044.017.522.05,1.044.05.521-.008,1.043-.008.522.028,1.042.028.522.07,1.043.07.523-.077,1.045-.077.523.034,1.045.034.522.012,1.045.012.523.032,1.047.032.838.093,1.013-.089S75.3,21.516,75.3,21s.03-.521.03-1.042-.1-.521-.1-1.042-.005-.521-.005-1.043.107-.521.107-1.042-.011-.521-.011-1.043-.012-.521-.012-1.042,0-.521,0-1.041.016-.522.016-1.043-.082-.522-.082-1.043.1-.522.1-1.044-.09-.522-.09-1.044.042-.523.042-1.046-.021-.523-.021-1.045a.953.953,0,0,0-.984-.943" fill="#9a0f1e"/>
    </g>
  </g>
</svg>
