<svg xmlns="http://www.w3.org/2000/svg" width="40" height="40" viewBox="0 0 40 40">
  <g id="Group_37" data-name="Group 37" transform="translate(-0.258 0)">
    <rect id="Rectangle_19" data-name="Rectangle 19" width="40" height="40" rx="20" transform="translate(0.258 0)" fill="#6899BF"/>
    <path id="Path_31" data-name="Path 31" d="M17.007,21.008a4,4,0,1,1,4,4A4,4,0,0,1,17.007,21.008Zm-2.164,0a6.166,6.166,0,1,0,6.166-6.166A6.166,6.166,0,0,0,14.843,21.008ZM25.978,14.6a1.441,1.441,0,1,0,1.442-1.44h0a1.442,1.442,0,0,0-1.441,1.44Zm-9.82,16.184a6.637,6.637,0,0,1-2.23-.413,3.976,3.976,0,0,1-2.279-2.278,6.631,6.631,0,0,1-.413-2.23c-.058-1.266-.07-1.646-.07-4.853s.013-3.586.07-4.853a6.68,6.68,0,0,1,.413-2.23,3.974,3.974,0,0,1,2.279-2.279,6.632,6.632,0,0,1,2.23-.413c1.266-.058,1.646-.07,4.851-.07s3.586.013,4.853.07a6.681,6.681,0,0,1,2.23.413,3.974,3.974,0,0,1,2.279,2.279,6.631,6.631,0,0,1,.413,2.23c.058,1.267.07,1.646.07,4.853s-.012,3.586-.07,4.853a6.662,6.662,0,0,1-.413,2.23,3.976,3.976,0,0,1-2.279,2.278,6.628,6.628,0,0,1-2.23.413c-1.266.058-1.646.07-4.853.07S17.423,30.84,16.157,30.782Zm-.1-21.709a8.8,8.8,0,0,0-2.915.558,6.139,6.139,0,0,0-3.512,3.512,8.807,8.807,0,0,0-.558,2.915C9.014,17.338,9,17.747,9,21.008s.014,3.67.073,4.951a8.807,8.807,0,0,0,.558,2.915,6.139,6.139,0,0,0,3.512,3.512,8.814,8.814,0,0,0,2.915.558c1.281.058,1.69.073,4.951.073s3.67-.014,4.951-.073a8.808,8.808,0,0,0,2.915-.558,6.139,6.139,0,0,0,3.512-3.512,8.784,8.784,0,0,0,.558-2.915c.058-1.281.072-1.69.072-4.951s-.014-3.67-.072-4.951a8.805,8.805,0,0,0-.558-2.915A6.141,6.141,0,0,0,28.875,9.63a8.793,8.793,0,0,0-2.915-.558C24.68,9.015,24.27,9,21.009,9S17.339,9.014,16.058,9.073Z" transform="translate(-0.935 -0.934)" fill="#fff"/>
  </g>
</svg>
