<svg xmlns="http://www.w3.org/2000/svg" xmlns:xlink="http://www.w3.org/1999/xlink" width="366.023" height="32.462" viewBox="0 0 366.023 32.462">
  <defs>
    <clipPath id="clip-path">
      <rect id="Rectangle_12" data-name="Rectangle 12" width="366.023" height="32.462" fill="#fff"/>
    </clipPath>
  </defs>
  <g id="Group_36" data-name="Group 36" transform="translate(0 0)">
    <g id="Group_35" data-name="Group 35" transform="translate(0 0)" clip-path="url(#clip-path)">
      <path id="Path_6" data-name="Path 6" d="M86.723,32.513c0-.64.016-.64.016-1.282s.059-.64.059-1.282c0-.829.457-1.155,1.215-1.155.479,0,.92-.047,1.278-.047.8,0,1.213-.089,1.437-.5a3.753,3.753,0,0,0,.161-1.606c0-.336.076-.733.064-1.2-.008-.359-.043-.76-.043-1.206,0-.727,0-.727,0-1.454s-.055-.727-.055-1.455.167-.728.167-1.455-.153-.726-.153-1.452.174-.727.174-1.455-.077-.727-.077-1.455-.111-.729-.111-1.457-.037-.728-.037-1.457.229-.729.229-1.458-.141-.73-.141-1.46a7.749,7.749,0,0,1,.225-1.525,1.681,1.681,0,0,1,.714-1.264,2.735,2.735,0,0,1,1.484-.4c1,0,1-.006,2-.006a3.194,3.194,0,0,1,1.573.267,1.912,1.912,0,0,1,.669,1.394,7.952,7.952,0,0,1,.2,1.532c0,.719-.09.719-.09,1.438s.129.718.129,1.437-.076.719-.076,1.438-.072.719-.072,1.437.181.719.181,1.437-.039.719-.039,1.438-.184.718-.184,1.435.021.719.021,1.438-.028.719-.028,1.438.091.72.091,1.439.039.72.039,1.44.086.721.086,1.442-.153.721-.153,1.442a11.974,11.974,0,0,1-.11,1.483,8.089,8.089,0,0,1-.25,1.465,5.061,5.061,0,0,1-.645,1.342A4.078,4.078,0,0,1,95.6,33.693a5.072,5.072,0,0,1-1.31.75,9,9,0,0,1-1.515.072,12.924,12.924,0,0,1-1.485.079c-.53,0-1.007.02-1.442,0a8.291,8.291,0,0,1-1.414-.17,2.138,2.138,0,0,1-1.269-.56,2.062,2.062,0,0,1-.443-1.35" transform="translate(-32.535 -2.43)" fill="#fff"/>
      <path id="Path_7" data-name="Path 7" d="M126.945,21.082c-.011-.447-.1-.9-.116-1.357s-.111-.9-.117-1.356.052-.905.052-1.361c0-.5-.112-.995-.123-1.475-.012-.507-.025-.995-.056-1.472-.034-.508-.107-.987-.173-1.457a12.426,12.426,0,0,0-.284-1.432,8.882,8.882,0,0,0-.279-1.463,5.9,5.9,0,0,0-.892-1.193,5.353,5.353,0,0,0-1.079-1.005,6.409,6.409,0,0,0-1.319-.671,9.23,9.23,0,0,0-1.44-.343,12.452,12.452,0,0,0-1.463-.229c-.465-.038-.955-.209-1.482-.209-.542,0-1.053.1-1.532.142a13.569,13.569,0,0,0-1.51.237,9.227,9.227,0,0,0-1.441.48,6.815,6.815,0,0,0-1.365.629,5.379,5.379,0,0,0-1.131.978,5.9,5.9,0,0,0-1.006,1.147,7.953,7.953,0,0,0-.592,1.421,13.077,13.077,0,0,0-.141,1.528c-.074.485-.2.98-.234,1.5-.035.491-.132,1-.145,1.518-.011.5.112,1,.112,1.524s-.079,1.057-.069,1.6c.01.524.128,1.055.128,1.6s-.2,1.082-.213,1.615.069,1.082.069,1.62c0,.517.011,1.025.022,1.519.013.52.1,1.023.138,1.513.037.522.161,1.012.234,1.495a12.581,12.581,0,0,0,.189,1.5,7.515,7.515,0,0,0,.678,1.352,6.064,6.064,0,0,0,.671,1.377,5.852,5.852,0,0,0,1.207.962,7.369,7.369,0,0,0,1.424.564,10.1,10.1,0,0,0,1.483.317,12.453,12.453,0,0,0,1.492.369c.478.037.991-.095,1.532-.095.522,0,1.02.144,1.483.1a11.906,11.906,0,0,0,1.457-.267,8.876,8.876,0,0,0,1.417-.421,6.445,6.445,0,0,0,1.29-.71,5.89,5.89,0,0,0,1.159-.921,6.366,6.366,0,0,0,.757-1.27,8.164,8.164,0,0,0,.625-1.342,12.429,12.429,0,0,0,.247-1.457c.079-.467.1-.958.149-1.463.041-.474.128-.96.144-1.462.017-.477.038-.969.038-1.47,0-.442-.126-.894-.135-1.355-.008-.444.153-.9.141-1.359m-6.66,6.535a1.769,1.769,0,0,1-.829,1,1.9,1.9,0,0,1-1.2.352,2.239,2.239,0,0,1-1.282-.231,1.87,1.87,0,0,1-.739-1.121,6.761,6.761,0,0,1,.084-1.337c0-.778-.153-.778-.153-1.556s.167-.778.167-1.556-.054-.777-.054-1.554,0-.776,0-1.553-.027-.777-.027-1.553.09-.777.09-1.552-.073-.775-.073-1.55.088-.776.088-1.552a2.343,2.343,0,0,1,.3-1.638,2.012,2.012,0,0,1,1.6-.555,1.971,1.971,0,0,1,1.583.571,2.321,2.321,0,0,1,.365,1.622c0,.779-.008.779.01,1.557s.108.778.108,1.556-.193.777-.193,1.554.09.777.09,1.553.006.777.006,1.553.069.776.069,1.552.072.774.072,1.549-.133.777-.133,1.552a6.8,6.8,0,0,1,.051,1.336" transform="translate(-40.904 -2.273)" fill="#fff"/>
      <path id="Path_8" data-name="Path 8" d="M149.149,9.7a8.137,8.137,0,0,0-.078-1.538,1.793,1.793,0,0,0-.752-1.3,2.923,2.923,0,0,0-1.514-.306c-1,0-1,.086-2,.086a2.9,2.9,0,0,0-1.5.249,1.728,1.728,0,0,0-.722,1.282A7.93,7.93,0,0,0,142.4,9.7c0,.723.027.723.027,1.445s0,.723,0,1.445.056.723.056,1.445-.167.723-.167,1.446.153.723.153,1.446-.174.722-.174,1.445.076.723.076,1.447.111.723.111,1.446.038.722.038,1.443-.23.724-.23,1.447.142.723.142,1.447-.132.724-.132,1.448.072.724.072,1.447.068.725.068,1.451.006.725.006,1.45a7.76,7.76,0,0,0,.182,1.521c.1.531.168,1.065.64,1.355a3.1,3.1,0,0,0,1.537.238c1,0,1,.09,2,.09a2.623,2.623,0,0,0,1.462-.454,1.721,1.721,0,0,0,.837-1.207,8.055,8.055,0,0,0,.164-1.543c0-.739-.181,0-.181-1.478,0-.384.039-.869.039-1.48,0-.427.184-.917.184-1.477,0-.448-.02-.941-.02-1.483,0-.375.028-.375.028-.75a3.446,3.446,0,0,1,.163-1.578c.262-.421.72-.45,1.48-.45.219,0,.219-.085.44-.085a4,4,0,0,1,1.438.279c.437.153.56.441.635,1.136a12.121,12.121,0,0,1,.113,1.448c0,.739.012.739.012,1.478s-.017.739-.017,1.478.117.74.117,1.481-.232.74-.232,1.481a8.5,8.5,0,0,0,.1,1.571,2.018,2.018,0,0,0,.875,1.337,3.046,3.046,0,0,0,1.558.357c1,0,1-.109,2-.109a3.025,3.025,0,0,0,1.539-.284,1.85,1.85,0,0,0,.741-1.333,8.341,8.341,0,0,0,.013-1.54c0-.723.174-.723.174-1.446s.049-.722.049-1.445-.129-.722-.129-1.445.083-.722.083-1.445V24.172c0-.723-.173-.723-.173-1.445s.128-.723.128-1.447.032-.723.032-1.446-.016-.722-.016-1.444-.015-.723-.015-1.446,0-.724,0-1.447.055-.724.055-1.448-.064-.724-.064-1.448-.016-.725-.016-1.451-.065-.725-.065-1.45a9.04,9.04,0,0,0,.074-1.566,1.805,1.805,0,0,0-.972-1.146,2.6,2.6,0,0,0-1.437-.332h-2a2.815,2.815,0,0,0-1.482.265,1.72,1.72,0,0,0-.784,1.243A7.962,7.962,0,0,0,153.54,9.7c0,.841.158,0,.158,1.681,0,.437-.136.987-.136,1.68,0,.488.045,1.048.045,1.688a7.916,7.916,0,0,1-.1,1.268c-.079.506-.246.757-.824.819-.31.034-.732-.029-1.287-.029a9.882,9.882,0,0,1-1.313-.089c-.564-.071-.8-.222-.872-.777-.04-.311.1-.736.1-1.31,0-.821-.086-.821-.086-1.642s.049-.824.032-1.645-.114-.822-.114-1.643" transform="translate(-53.38 -2.459)" fill="#fff"/>
      <path id="Path_9" data-name="Path 9" d="M188.973,18.733c-.318-.679-.308-.684-.63-1.362s-.267-.7-.589-1.378-.353-.662-.674-1.34-.4-.641-.724-1.318-.242-.715-.564-1.392-.389-.647-.712-1.327-.242-.717-.565-1.4-.344-.669-.67-1.347a2.371,2.371,0,0,0-.895-1.138,3.042,3.042,0,0,0-1.444-.178c-1.059,0-1.059-.166-2.119-.166a2.656,2.656,0,0,0-1.473.481,1.859,1.859,0,0,0-.942,1.2,8.667,8.667,0,0,0-.019,1.566c0,.722.111.722.111,1.445s.037.721.037,1.445-.229.722-.229,1.445.141.722.141,1.445-.132.723-.132,1.447.072.722.072,1.445.068.722.068,1.447.006.723.006,1.445.09.722.09,1.443-.193.724-.193,1.446.108.724.108,1.447-.09.724-.09,1.448.129.724.129,1.448-.076.725-.076,1.45-.071.725-.071,1.45a7.771,7.771,0,0,0,.272,1.524,1.635,1.635,0,0,0,.728,1.231,2.625,2.625,0,0,0,1.463.509c1,0,1-.021,2-.021a3.09,3.09,0,0,0,1.566-.327,1.944,1.944,0,0,0,.762-1.367,8.475,8.475,0,0,0,.054-1.549c0-.717-.089-.716-.091-1.433s.149-.719.146-1.436.023-.719.02-1.438-.068-.718-.071-1.437-.015-.719-.018-1.438.016-.719.013-1.44-.122-.719-.124-1.44c0-.237.141-.263.262-.263.079,0,.081.082.2.319.335.71.356.7.688,1.412s.326.713.658,1.424.431.667.762,1.378.274.74.606,1.452.412.675.745,1.388.406.679.738,1.392.176.786.509,1.5.287.735.621,1.448A2.554,2.554,0,0,0,190.583,34a4.119,4.119,0,0,0,1.657.5c.471.046,1.046.071,1.736.071a2.583,2.583,0,0,0,1.453-.5,1.735,1.735,0,0,0,.878-1.183,8.2,8.2,0,0,0,.128-1.55c0-.722-.017-.722-.017-1.445s-.016-.722-.016-1.445,0-.723,0-1.445.055-.722.055-1.445-.063-.724-.063-1.447-.016-.722-.016-1.445-.065-.724-.065-1.447.169-.723.169-1.445-.234-.722-.234-1.445.013-.723.013-1.445,0-.723,0-1.447.066-.724.066-1.447.006-.725.006-1.448.1-.725.1-1.45-.158-.725-.158-1.45a8.823,8.823,0,0,0,.043-1.553,1.821,1.821,0,0,0-.84-1.258,2.79,2.79,0,0,0-1.5-.386c-1,0-1,.109-2,.109a2.885,2.885,0,0,0-1.5.274,1.83,1.83,0,0,0-.847,1.26,8.518,8.518,0,0,0-.023,1.554c0,.755-.143.755-.143,1.51s.086.755.086,1.511-.031.755-.031,1.511.192.756.192,1.512-.246.757-.246,1.515.089.756.089,1.513c0,.276-.053.277-.173.277a.358.358,0,0,1-.406-.255" transform="translate(-66.355 -2.397)" fill="#fff"/>
      <path id="Path_10" data-name="Path 10" d="M247.667,22.136c0-.835-.035-.835-.035-1.668s.059-.833.059-1.665.016-.833.016-1.665a14.144,14.144,0,0,0-.04-1.578,12.917,12.917,0,0,0-.437-1.52,12.41,12.41,0,0,0-.452-1.493,11.766,11.766,0,0,0-.572-1.458,10.475,10.475,0,0,0-.947-1.251,9.89,9.89,0,0,0-.988-1.2A9.418,9.418,0,0,0,243.159,7.5a6.058,6.058,0,0,0-1.267-.562,8.366,8.366,0,0,0-1.345-.276,13.018,13.018,0,0,0-1.35-.247c-.421-.038-.882.041-1.378.022-.428-.017-.884-.034-1.376-.041-.432-.006-.889.019-1.376.019-.5,0-.98.021-1.448.064-.5.046-1.016-.114-1.476-.022a11.077,11.077,0,0,0-1.382.492,9.694,9.694,0,0,0-1.347.551,8.661,8.661,0,0,0-1.224.784A8.2,8.2,0,0,0,227.161,9.3a8.381,8.381,0,0,0-.906,1.121,9.474,9.474,0,0,0-.831,1.205,11.337,11.337,0,0,0-.427,1.4,13.091,13.091,0,0,0-.295,1.42c-.082.465-.053.95-.093,1.445-.039.471-.084.945-.084,1.442,0,.809.021.809.021,1.618s-.185.81-.185,1.619-.039.808-.039,1.616.182.808.182,1.616a14.252,14.252,0,0,0,.013,1.545,13.13,13.13,0,0,0,.189,1.543,11.784,11.784,0,0,0,.573,1.445,11.7,11.7,0,0,0,.56,1.444,10.7,10.7,0,0,0,.925,1.245,10.707,10.707,0,0,0,.875,1.3,10.079,10.079,0,0,0,1.252.94,6.046,6.046,0,0,0,1.222.678,7.866,7.866,0,0,0,1.352.343c.416.089.876.087,1.383.141.427.046.875.211,1.38.235.434.021.9-.1,1.4-.1.437.007.9.239,1.4.239s.963-.052,1.4-.079c.5-.031.947-.188,1.375-.252a10.058,10.058,0,0,0,1.336-.361,8.418,8.418,0,0,0,1.356-.336,5.448,5.448,0,0,0,1.067-.89,10.023,10.023,0,0,0,1.16-.922,11.779,11.779,0,0,0,.855-1.207,12.111,12.111,0,0,0,.746-1.273,12.6,12.6,0,0,0,.564-1.36,12.562,12.562,0,0,0,.51-1.387,12.727,12.727,0,0,0,.185-1.467,12.5,12.5,0,0,0,.174-1.468c0-.835-.086-.835-.086-1.668m-6.841,1.24c-.029.495.018.984-.046,1.43a9.141,9.141,0,0,1-.331,1.395,5.227,5.227,0,0,1-.583,1.322,3.576,3.576,0,0,1-1.131.88,3.912,3.912,0,0,1-1.3.5,6,6,0,0,1-1.394.334c.036,0,.066-.056.1-.056s-.1-.086-.2-.086c.034,0,.063.124.1.123a6.385,6.385,0,0,1-1.477-.258,4.23,4.23,0,0,1-1.41-.492,3.5,3.5,0,0,1-.864-1.2,5.05,5.05,0,0,1-.638-1.317,9.911,9.911,0,0,1-.269-1.457c-.052-.472-.153-.965-.171-1.482-.017-.48-.094-.979-.094-1.49,0-1.065.132-1.065.132-2.13,0-.494-.135-.99-.115-1.473.021-.5.286-.972.347-1.444a9.39,9.39,0,0,1,.249-1.432,5.523,5.523,0,0,1,.481-1.383,3.861,3.861,0,0,1,.961-1.143,4.381,4.381,0,0,1,1.419-.456,5.782,5.782,0,0,1,1.448-.33c-.036,0-.063.16-.1.16.077,0,.1-.031.147-.046l-.048,0c.036,0,.066-.006.1-.006a.173.173,0,0,0-.053.008,6.21,6.21,0,0,1,1.375.141,3.8,3.8,0,0,1,1.255.643,3.514,3.514,0,0,1,1.023.959,5.285,5.285,0,0,1,.5,1.317,8.817,8.817,0,0,1,.39,1.362c.068.451.148.922.179,1.417.029.459-.013.937,0,1.426.009.466,0,.942,0,1.428s.034.962.027,1.423c-.008.491.017.967-.01,1.423" transform="translate(-84.156 -2.4)" fill="#fff"/>
      <path id="Path_11" data-name="Path 11" d="M271.613,8a1.591,1.591,0,0,0-.364-1.26,1.866,1.866,0,0,0-1.3-.341c-.81,0-.81.034-1.619.034s-.809.086-1.618.086a2.1,2.1,0,0,0-1.348.214c-.285.222-.407.6-.407,1.267s-.089.657-.089,1.314.027.657.027,1.315,0,.658,0,1.316a1.483,1.483,0,0,0,.564,1.052,1.772,1.772,0,0,0,1.094.618c.561,0,.86-.092.86.7a1.758,1.758,0,0,1-.541,1.2,1.919,1.919,0,0,0-.6,1.209c0,.71.277.677,1,.677.66,0,.66-.039,1.32-.039s1.27.031,1.7-.487a5.668,5.668,0,0,0,.674-1.7c.241-.729.525-1.172.625-1.536a5.009,5.009,0,0,0,.114-1.653c0-.663-.068-.663-.068-1.327s.011-.664-.006-1.328-.015-.665-.015-1.33" transform="translate(-99.366 -2.4)" fill="#fff"/>
      <path id="Path_12" data-name="Path 12" d="M364.894,20.944c-.011-.447-.1-.9-.116-1.357s-.109-.9-.117-1.355.053-.906.053-1.362c0-.5-.112-.995-.122-1.475-.013-.507-.026-.995-.057-1.472-.034-.508-.107-.987-.172-1.458a12.433,12.433,0,0,0-.284-1.431,8.884,8.884,0,0,0-.278-1.463,5.941,5.941,0,0,0-.892-1.193,5.341,5.341,0,0,0-1.08-1.005,6.431,6.431,0,0,0-1.32-.671,9.15,9.15,0,0,0-1.438-.343A12.5,12.5,0,0,0,357.6,6.13c-.465-.039-.956-.209-1.482-.209-.543,0-1.053.1-1.532.142a13.413,13.413,0,0,0-1.511.237,9.173,9.173,0,0,0-1.442.48,6.826,6.826,0,0,0-1.365.628,5.367,5.367,0,0,0-1.131.979,5.9,5.9,0,0,0-1.005,1.147,7.9,7.9,0,0,0-.592,1.421,12.93,12.93,0,0,0-.141,1.528c-.074.485-.2.98-.234,1.5-.036.491-.133,1-.146,1.518-.011.5.114,1,.114,1.524s-.081,1.056-.07,1.6c.011.524.129,1.055.129,1.6s-.2,1.082-.214,1.615.069,1.082.069,1.62c0,.518.011,1.026.022,1.52.013.52.1,1.023.138,1.513.038.522.162,1.012.236,1.495a12.585,12.585,0,0,0,.187,1.5,7.649,7.649,0,0,0,.679,1.352,6.089,6.089,0,0,0,.67,1.377,5.882,5.882,0,0,0,1.209.962,7.348,7.348,0,0,0,1.423.564,10.059,10.059,0,0,0,1.483.317,12.494,12.494,0,0,0,1.492.369c.477.037.991-.095,1.532-.095.522,0,1.019.145,1.482.1a11.93,11.93,0,0,0,1.458-.267,8.886,8.886,0,0,0,1.416-.421,6.434,6.434,0,0,0,1.29-.71,5.82,5.82,0,0,0,1.16-.922,6.311,6.311,0,0,0,.757-1.27,8.17,8.17,0,0,0,.626-1.342,12.706,12.706,0,0,0,.246-1.457c.081-.467.1-.958.149-1.463.042-.474.128-.96.144-1.462.016-.477.038-.969.038-1.47,0-.442-.126-.893-.135-1.354-.008-.444.153-.9.141-1.359m-6.945,6.535a1.771,1.771,0,0,1-.829,1,1.9,1.9,0,0,1-1.2.352,2.235,2.235,0,0,1-1.282-.232,1.862,1.862,0,0,1-.739-1.12,6.761,6.761,0,0,1,.084-1.337c0-.779-.152-.779-.152-1.556s.167-.778.167-1.556-.054-.777-.054-1.553,0-.777,0-1.554-.027-.777-.027-1.553.09-.776.09-1.551-.074-.775-.074-1.55.089-.776.089-1.552a2.343,2.343,0,0,1,.3-1.638,2.012,2.012,0,0,1,1.6-.555,1.974,1.974,0,0,1,1.583.571,2.327,2.327,0,0,1,.364,1.622c0,.778-.008.779.009,1.557s.109.778.109,1.556-.193.777-.193,1.554.091.777.091,1.553.006.777.006,1.553.068.775.068,1.552.072.774.072,1.549-.132.777-.132,1.552a6.844,6.844,0,0,1,.051,1.336" transform="translate(-130.172 -2.221)" fill="#fff"/>
      <path id="Path_13" data-name="Path 13" d="M291.257,27.109a2.464,2.464,0,0,1-.281,1.26,1.194,1.194,0,0,1-1.131.494,3.651,3.651,0,0,1-1.557-.294,3.774,3.774,0,0,1-1.32-.92,5.907,5.907,0,0,1-.765-1.409,9.547,9.547,0,0,1-.592-1.484,14.733,14.733,0,0,1-.223-1.581c-.078-.536-.157-1.067-.189-1.58-.036-.564-.049-1.1-.049-1.587a10.59,10.59,0,0,1,.039-1.432c.048-.425.286-.877.39-1.379a12.664,12.664,0,0,1,.216-1.417,10.142,10.142,0,0,1,.692-1.257,7.03,7.03,0,0,1,.677-1.243,5.2,5.2,0,0,1,.944-1.083,4.463,4.463,0,0,1,1.286-.69,5.383,5.383,0,0,1,1.451.019,11.568,11.568,0,0,1,1.442-.036c.51.071.953.3,1.395.376a7.913,7.913,0,0,0,1.441.092c.639,0,1.129-.274,1.129-.984,0-.779-.007-.779-.007-1.558s-.089-.779-.089-1.559a1.16,1.16,0,0,0-.827-1.222,7.667,7.667,0,0,0-1.621-.246c-.471-.057-1.005-.184-1.621-.208-.5-.019-1.044.1-1.639.1a13.643,13.643,0,0,0-3,.176,13.686,13.686,0,0,0-1.4.579,11.6,11.6,0,0,0-1.39.54,10.838,10.838,0,0,0-1.392.6,10.678,10.678,0,0,0-1.174.954,10.639,10.639,0,0,0-1.06,1.078,11.531,11.531,0,0,0-.8,1.281,12.2,12.2,0,0,0-.665,1.342,13.949,13.949,0,0,0-.456,1.421,14.576,14.576,0,0,0-.536,1.4c-.1.469-.217.961-.285,1.475-.065.477-.048.983-.079,1.5-.03.482-.034.981-.034,1.5s-.005,1.011.022,1.492c.028.514.188,1,.246,1.473.061.512-.091,1.04,0,1.512.1.507.219,1,.354,1.46a14.325,14.325,0,0,0,.516,1.414,12.685,12.685,0,0,0,.641,1.361,11.015,11.015,0,0,0,.9,1.2,10.744,10.744,0,0,0,.927,1.177,10.286,10.286,0,0,0,1.188.917,10.529,10.529,0,0,0,1.293.737,11.789,11.789,0,0,0,1.28.788,13.385,13.385,0,0,0,1.417.515c.483.128,1,.108,1.5.187s.984.219,1.481.257,1.006.056,1.5.056c.421,0,.891-.172,1.386-.2a11.041,11.041,0,0,0,1.393-.02,6.128,6.128,0,0,0,1.353-.357,3.618,3.618,0,0,0,1.153-.794,3.083,3.083,0,0,0,.7-1.2,4.425,4.425,0,0,0,.2-1.374c0-.769.055-.769.055-1.537s-.063-.767-.063-1.535-.016-.769-.016-1.538-.065-.769-.065-1.538.169-.769.169-1.538-.234-.77-.234-1.54.014-.771.014-1.541,0-.771,0-1.541c0-.461.085-.914-.313-1.223a2.033,2.033,0,0,0-1.292-.314c-.714,0-.714-.1-1.428-.1s-.714.157-1.427.157-.715-.136-1.431-.136-.715.045-1.43.045c-.784,0-1.277,0-1.551.268-.251.25-.245.73-.278,1.533-.018.422-.083.939-.083,1.58,0,.2-.051.2-.051.395a2.038,2.038,0,0,0,.332,1.258,1.391,1.391,0,0,0,1.192.553c.418,0,.8-.079,1.085.134.23.176.332.462.332,1.013,0,.879.175.876.192,1.753s-.077.88-.077,1.758" transform="translate(-104.359 -2.318)" fill="#fff"/>
      <path id="Path_14" data-name="Path 14" d="M332.351,28.263a1.415,1.415,0,0,0-1.427-1.134,5.745,5.745,0,0,1-1.278.184,1.387,1.387,0,0,1-1.282-.572,4.61,4.61,0,0,1-.352-1.444,7.436,7.436,0,0,1-.207-1.449c0-.814.207-1.04.579-1.213a4.651,4.651,0,0,0,1.209-.742,7.714,7.714,0,0,0,1.062-.981,5.16,5.16,0,0,0,.746-1.23,5.812,5.812,0,0,0,.376-1.388,11.563,11.563,0,0,0,.11-1.438c.016-.455.049-.934.049-1.45,0-.5.108-1,.066-1.489a13.092,13.092,0,0,0-.377-1.445,10,10,0,0,0-.387-1.419,7.833,7.833,0,0,0-.548-1.373,6.257,6.257,0,0,0-.99-1.093,5.648,5.648,0,0,0-1.11-.95,6.359,6.359,0,0,0-1.283-.777,8.648,8.648,0,0,0-1.483-.257,11.575,11.575,0,0,0-1.493-.01c-.78,0-.78-.063-1.56-.063s-.781.107-1.561.107-.779,0-1.558,0-.779.027-1.558.027h-1.558a3.394,3.394,0,0,0-1.556.12,1.9,1.9,0,0,0-.73,1.363,8.152,8.152,0,0,0-.112,1.543c0,.725.012.725.012,1.45s.066.725.066,1.45-.026.724-.026,1.448-.152.724-.152,1.448.086.724.086,1.447.04.724.04,1.447.091.722.091,1.443-.028.723-.028,1.446.021.724.021,1.447-.184.723-.184,1.445-.038.724-.038,1.447.181.722.181,1.445-.071.722-.071,1.445-.076.722-.076,1.445.129.722.129,1.445c0,.462-.09.927-.051,1.349a2.538,2.538,0,0,0,.477,1.232,1.348,1.348,0,0,0,1.125.7c.7,0,.7-.089,1.4-.089s.7-.006,1.4-.006a2.734,2.734,0,0,0,1.483-.4,1.686,1.686,0,0,0,.713-1.264,7.847,7.847,0,0,0,.224-1.525c0-.7-.141-.7-.141-1.4s.229-.7.229-1.4-.038-.7-.038-1.4-.111-.7-.111-1.4c0-.316.037-1.06.359-1.06.141,0,.564.364,1.127,1.3a7.675,7.675,0,0,1,.855,1.47c.17.459.18,1.043.342,1.665a10.924,10.924,0,0,0,.537,1.433,8.56,8.56,0,0,0,.7,1.355,6.762,6.762,0,0,0,.98,1.167,5.715,5.715,0,0,0,1.179.987,5.751,5.751,0,0,0,1.465.482,6.542,6.542,0,0,0,1.522.257,4.048,4.048,0,0,0,1.6-.321,1.2,1.2,0,0,0,.774-1.277c0-.547.068-1.069.077-1.558.011-.567.039-1.091.039-1.557a8.034,8.034,0,0,0-.1-1.859m-7.617-10.922a3.054,3.054,0,0,1-.521,1.473,1.956,1.956,0,0,1-1.481.425,3.044,3.044,0,0,1-1.418-.157c-.337-.209-.4-.586-.4-1.308,0-.473.013-1.183.013-1.973,0-.374.081-.765.072-1.128-.01-.441-.1-.839-.1-1.12,0-.75.119-1.105.417-1.345a2.142,2.142,0,0,1,1.413-.341,1.735,1.735,0,0,1,1.465.7,3.841,3.841,0,0,1,.555,1.569,8.927,8.927,0,0,1,.126,1.663,7.606,7.606,0,0,1-.144,1.54" transform="translate(-117.808 -2.45)" fill="#fff"/>
      <path id="Path_15" data-name="Path 15" d="M397.861,31.071c-.062-.414-.161-.881-.267-1.427-.082-.426-.194-.893-.3-1.418-.09-.436-.157-.916-.264-1.431-.092-.442-.066-.941-.171-1.448-.093-.447-.361-.887-.463-1.39q-.138-.677-.287-1.428c-.091-.455-.1-.946-.2-1.443-.089-.457-.308-.909-.4-1.4-.088-.461-.13-.947-.222-1.441-.087-.463-.006-.972-.1-1.466-.084-.463-.251-.925-.34-1.417-.083-.464-.256-.927-.342-1.417-.082-.467-.1-.955-.189-1.445-.081-.468-.27-.927-.354-1.417-.079-.466-.156-.945-.237-1.433a6.969,6.969,0,0,0-.462-1.442,2.778,2.778,0,0,0-.863-1.175,2.256,2.256,0,0,0-1.371-.659c-.77,0-.77.117-1.54.117s-.77-.018-1.541-.018-.769.012-1.537.012-.769.065-1.538.065a2.192,2.192,0,0,0-1.41.414,2.858,2.858,0,0,0-1.008,1.151,7.353,7.353,0,0,0-.316,1.513c-.083.491-.126.977-.206,1.445-.084.491-.076.986-.157,1.453-.084.49-.2.961-.276,1.425-.086.492-.149.973-.231,1.437-.087.492-.354.937-.437,1.4-.089.495-.212.965-.3,1.425-.09.5,0,1-.084,1.462-.092.5-.252.96-.337,1.415-.093.5-.257.96-.344,1.411-.1.5-.061,1-.148,1.448-.1.508-.281.965-.369,1.408-.1.515-.091,1.01-.179,1.445-.106.525-.39.959-.476,1.385-.109.542-.114,1.029-.194,1.443-.108.565-.183,1.028-.242,1.432a9.271,9.271,0,0,0-.046,1.451,1.659,1.659,0,0,0,.492,1.3,2.089,2.089,0,0,0,1.288.632c.431.053.937-.075,1.5-.075.939,0,.939.229,1.878.229a1.491,1.491,0,0,0,1.224-.8,5.192,5.192,0,0,0,.4-1.388c.11-.456.117-.954.2-1.421a11.52,11.52,0,0,1,.464-1.368c.179-.615.368-1.142.793-1.142.8,0,.8.166,1.6.166s.8-.054,1.6-.054c.429,0,.633.41.78,1.032a13.532,13.532,0,0,1,.25,1.4c.059.469.033.972.123,1.427a4.333,4.333,0,0,0,.522,1.331,1.383,1.383,0,0,0,1.163.807c1.06,0,1.06-.086,2.12-.086a14.346,14.346,0,0,0,1.56-.093,2.655,2.655,0,0,0,1.475-.448,1.833,1.833,0,0,0,.534-1.443,11.408,11.408,0,0,0-.209-1.435m-8.409-9.02c0,.59-.266.518-1.506.518-1.278,0-1.6.072-1.6-.557a2.816,2.816,0,0,1-.036-.606c.051-.485.271-.963.318-1.462s-.059-1.008-.012-1.5c.049-.5.264-.984.316-1.46.055-.52.06-1.022.123-1.48.077-.554.161-1.05.254-1.462.175-.781.364-1.27.632-1.27s.4.5.569,1.276c.09.414.239.9.311,1.452.06.459.027.966.081,1.488.05.477.184.966.232,1.473.048.489.13.983.182,1.477s.047,1,.107,1.485a3.609,3.609,0,0,1,.023.627" transform="translate(-141.848 -2.389)" fill="#fff"/>
      <path id="Path_16" data-name="Path 16" d="M420.189,13.287c0-.988.132-1.26,1.132-1.26.479,0,.837.1,1.12.1a3.236,3.236,0,0,0,1.187-.195c.372-.151.512-.421.512-.933,0-.839.088-.839.088-1.677s-.074-.839-.074-1.677a.972.972,0,0,0-.589-.951,2.862,2.862,0,0,0-1.205-.212h-1.572c-.787,0-.787.054-1.574.054s-.787-.166-1.575-.166-.787.152-1.576.152-.787-.173-1.576-.173-.789.076-1.578.076-.79.11-1.578.11a2.6,2.6,0,0,0-1.155.266c-.407.195-.842.41-.842.845,0,.839.142.839.142,1.677s-.132.839-.132,1.677a1.034,1.034,0,0,0,.7.978,3.522,3.522,0,0,0,1.2.1c.481,0,.879-.047,1.158-.047.84,0,1.168.274,1.168,1.262,0,.75-.193.75-.193,1.5s.108.75.108,1.5-.091.75-.091,1.5.129.75.129,1.5-.076.751-.076,1.5-.071.75-.071,1.5.182.75.182,1.5-.039.751-.039,1.5-.185.752-.185,1.5.021.752.021,1.5-.028.752-.028,1.505.091.754.091,1.507a8.053,8.053,0,0,0,.133,1.542,1.691,1.691,0,0,0,.838,1.191,2.581,2.581,0,0,0,1.45.474c1,0,1,.026,2,.026a2.842,2.842,0,0,0,1.421-.362,1.719,1.719,0,0,0,.809-1.157,7.352,7.352,0,0,0,.184-1.437c.01-.762-.117-.762-.117-1.524s.233-.762.233-1.525,0-.762,0-1.524-.027-.762-.027-1.525.006-.762.006-1.525-.109-.761-.109-1.522.064-.762.064-1.525-.088-.763-.088-1.526-.081-.763-.081-1.526.172-.764.172-1.526.067-.767.049-1.531-.17-.762-.17-1.526" transform="translate(-153.563 -2.381)" fill="#fff"/>
      <path id="Path_17" data-name="Path 17" d="M435.52,14.535a7.2,7.2,0,0,0,.127,1.472,6.173,6.173,0,0,0,.416,1.423,8.228,8.228,0,0,0,.8,1.257c.272.377.649.7,1,1.1.309.347.585.762.958,1.141.328.332.732.627,1.11.995.337.329.632.738,1.01,1.1.45.437.837.8,1.138,1.132a8.046,8.046,0,0,1,.979,1.275,2.734,2.734,0,0,1,.438,1.535,1.944,1.944,0,0,1-1.04,1.438,3.2,3.2,0,0,1-1.671.712,8.941,8.941,0,0,1-1.4-.257,14.1,14.1,0,0,1-1.4-.194,5.494,5.494,0,0,0-1.4-.129c-1.08,0-1.367.4-1.367.874,0,.76-.229.76-.229,1.52s.141.759.141,1.519a1.553,1.553,0,0,0,.845,1.387,6.217,6.217,0,0,0,1.623.484,13.9,13.9,0,0,0,1.669.164c.542.044,1.105.059,1.673.059.407,0,.836-.106,1.278-.139s.886.112,1.3.052a11.23,11.23,0,0,0,1.244-.351,6.684,6.684,0,0,0,1.278-.367,9.169,9.169,0,0,0,1.093-.758,6.865,6.865,0,0,0,1.069-.776,6.489,6.489,0,0,0,.9-.98,5.511,5.511,0,0,0,.572-1.637,7.915,7.915,0,0,0,.328-1.682c.042-.562.231-1.134.231-1.728a12.513,12.513,0,0,0-.1-1.483,9.328,9.328,0,0,0-.262-1.465,9.274,9.274,0,0,0-.612-1.357A10.454,10.454,0,0,0,448.5,20.6a14.271,14.271,0,0,0-.954-1.123c-.3-.356-.517-.819-.885-1.191-.328-.331-.67-.692-1.06-1.038-.35-.312-.77-.584-1.173-.912a12.22,12.22,0,0,1-.964-.837,3.36,3.36,0,0,1-.727-1.034,2.991,2.991,0,0,1-.335-1.236,1.394,1.394,0,0,1,.635-1.122,1.665,1.665,0,0,1,1.185-.326,9.3,9.3,0,0,1,1.613.155,12.63,12.63,0,0,0,1.624.258c.159,0,.159-.107.319-.107,1.36,0,1.585-.75,1.585-1.185,0-.759-.088-.759-.088-1.519s-.081-.759-.081-1.518a1.2,1.2,0,0,0-.851-1.13,6.62,6.62,0,0,0-1.495-.461c-.46-.079-1-.012-1.556-.049-.484-.031-1-.129-1.549-.129-.47,0-.987.012-1.516.059a11.525,11.525,0,0,0-1.465.4,7.6,7.6,0,0,0-1.467.357,6.094,6.094,0,0,0-1.313.76,5.843,5.843,0,0,0-1.039,1.107,6.638,6.638,0,0,0-.731,1.323,8.554,8.554,0,0,0-.462,1.436,11.282,11.282,0,0,0-.294,1.482c-.046.469.064.978.064,1.512" transform="translate(-163.189 -2.287)" fill="#fff"/>
      <path id="Path_18" data-name="Path 18" d="M489.588,15.48c-.319.71-.567,1.121-.847,1.121s-.459-.441-.777-1.151c-.3-.7-.331-.684-.63-1.382s-.379-.664-.679-1.362-.219-.732-.519-1.43-.367-.67-.667-1.37-.216-.735-.518-1.433a5.336,5.336,0,0,0-.73-1.222,2.281,2.281,0,0,0-1.138-.81,4.817,4.817,0,0,0-1.413-.1c-1.06,0-1.06-.166-2.12-.166a2.651,2.651,0,0,0-1.473.482,1.857,1.857,0,0,0-.942,1.2,8.669,8.669,0,0,0-.019,1.566c0,.722.11.722.11,1.445s.039.722.039,1.444-.23.724-.23,1.446.142.722.142,1.445-.133.724-.133,1.447.072.722.072,1.445.068.723.068,1.446.006.724.006,1.447.09.722.09,1.443-.193.723-.193,1.446.109.724.109,1.447-.091.724-.091,1.447.129.725.129,1.448-.076.725-.076,1.45-.071.725-.071,1.45a7.764,7.764,0,0,0,.273,1.524,1.633,1.633,0,0,0,.727,1.231,2.627,2.627,0,0,0,1.463.509c1,0,1-.02,2-.02a3.089,3.089,0,0,0,1.566-.328,1.942,1.942,0,0,0,.761-1.367,8.37,8.37,0,0,0,.054-1.549c0-.772-.086-.772-.086-1.546S484,28.8,484,28.028s.026-.775.026-1.55-.066-.775-.066-1.55-.011-.775-.011-1.55.019-.776.019-1.553-.119-.776-.119-1.552c0-.237.182-.264.3-.264.081,0,.122.086.244.322.223.443.451.847.642,1.237.221.451.415.87.6,1.256.221.464.514.837.69,1.214.227.486.366.93.539,1.286a7.529,7.529,0,0,0,.754,1.172,1.169,1.169,0,0,0,1.129.578,1.221,1.221,0,0,0,1.2-.535,8.712,8.712,0,0,0,.72-1.2c.172-.356.252-.827.479-1.311.176-.376.447-.759.669-1.222.184-.385.386-.8.608-1.25.192-.391.245-.882.471-1.323a.551.551,0,0,1,.45-.323c.119,0,.14.131.14.368,0,.773.017.773.017,1.545s.014.774.014,1.548,0,.775,0,1.549-.055.775-.055,1.55.064.775.064,1.55.016.777.016,1.553.065.776.065,1.553a8.982,8.982,0,0,0-.074,1.566,1.808,1.808,0,0,0,.973,1.146,2.59,2.59,0,0,0,1.436.332h2a2.815,2.815,0,0,0,1.482-.265,1.723,1.723,0,0,0,.784-1.243,7.96,7.96,0,0,0,.19-1.537c0-.722-.158-.722-.158-1.446s.136-.722.136-1.444-.044-.722-.044-1.445.049-.723.049-1.445-.109-.723-.109-1.447.064-.722.064-1.446.051-.723.051-1.446-.072-.723-.072-1.446.143-.722.143-1.444-.086-.723-.086-1.445.031-.724.031-1.447-.192-.724-.192-1.448.246-.724.246-1.448-.089-.725-.089-1.451.092-.725.092-1.45a7.925,7.925,0,0,0-.235-1.543,1.9,1.9,0,0,0-.724-1.367,3.244,3.244,0,0,0-1.56-.2c-1.079,0-1.079-.016-2.158-.016a4.906,4.906,0,0,0-1.426.08,2.348,2.348,0,0,0-1.073.9,4.826,4.826,0,0,0-.854,1.151c-.3.7-.084.789-.382,1.487s-.4.653-.7,1.35-.365.67-.664,1.368-.232.727-.516,1.433-.264.715-.568,1.413" transform="translate(-178.961 -2.316)" fill="#fff"/>
      <path id="Path_19" data-name="Path 19" d="M527.211,9.486a8.189,8.189,0,0,0-.078-1.538,1.8,1.8,0,0,0-.752-1.3,2.926,2.926,0,0,0-1.515-.306c-1,0-1,.086-2,.086a2.907,2.907,0,0,0-1.5.249,1.725,1.725,0,0,0-.722,1.282,7.879,7.879,0,0,0-.182,1.528c0,.723.027.723.027,1.445s0,.723,0,1.445.054.723.054,1.445-.167.723-.167,1.445.153.724.153,1.447-.174.722-.174,1.445.076.724.076,1.447.111.723.111,1.446.037.722.037,1.443-.229.724-.229,1.446.141.724.141,1.448-.132.724-.132,1.448.071.724.071,1.447.069.725.069,1.451.006.725.006,1.45a7.807,7.807,0,0,0,.182,1.521c.1.531.168,1.065.64,1.355a3.1,3.1,0,0,0,1.538.239c1,0,1,.089,2,.089a2.624,2.624,0,0,0,1.462-.454,1.719,1.719,0,0,0,.837-1.207,8.055,8.055,0,0,0,.164-1.543c0-.723-.181-.723-.181-1.446s.039-.722.039-1.445.185-.722.185-1.445-.021-.722-.021-1.445.028-.724.028-1.447-.092-.723-.092-1.445-.039-.723-.039-1.447-.086-.723-.086-1.446.152-.722.152-1.444.026-.723.026-1.446-.066-.724-.066-1.447-.011-.724-.011-1.448.018-.724.018-1.448-.1-.723-.118-1.448.049-.728.049-1.453" transform="translate(-195.213 -2.379)" fill="#fff"/>
      <path id="Path_20" data-name="Path 20" d="M545.484,28.673a1.158,1.158,0,0,1-1.127-.824,4.638,4.638,0,0,1-.09-1.437c0-.772-.034-.772-.034-1.545s-.087-.772-.087-1.544.088-.773.088-1.545-.074-.772-.074-1.545.089-.772.089-1.543-.027-.772-.027-1.544,0-.773,0-1.546-.055-.773-.055-1.546.167-.774.167-1.547-.152-.775-.152-1.549.174-.775.174-1.55a8.152,8.152,0,0,0-.171-1.553,1.766,1.766,0,0,0-.876-1.2,2.734,2.734,0,0,0-1.465-.288c-1,0-1-.228-2-.228a2.728,2.728,0,0,0-1.493.475,1.878,1.878,0,0,0-.918,1.233,8.636,8.636,0,0,0-.024,1.565c0,.723.069.723.069,1.446s.006.722.006,1.444.09.723.09,1.445-.193.723-.193,1.446.108.723.108,1.446-.09.722-.09,1.445.129.724.129,1.447-.076.723-.076,1.446-.072.722-.072,1.444.182.723.182,1.446-.038.724-.038,1.447-.185.724-.185,1.448.021.724.021,1.448-.028.725-.028,1.45.092.725.092,1.45a8.12,8.12,0,0,0,.132,1.543,1.692,1.692,0,0,0,.839,1.191,2.579,2.579,0,0,0,1.45.474c.752,0,.752.025,1.5.025s.752-.065,1.5-.065.753-.012,1.5-.012.753.019,1.505.019.754-.118,1.508-.118.754.232,1.508.232a3.107,3.107,0,0,0,1.575-.358,2.023,2.023,0,0,0,.833-1.365,8.427,8.427,0,0,0,.1-1.565c0-.256-.109-.256-.109-.513A2.477,2.477,0,0,0,550.956,29a2,2,0,0,0-1.556-.435c-.379,0-.778.1-1.3.113-.364.012-.793-.146-1.307-.137-.382.006-.814.131-1.309.131" transform="translate(-201.584 -2.301)" fill="#fff"/>
      <path id="Path_21" data-name="Path 21" d="M571.438,28.673a1.156,1.156,0,0,1-1.125-.824,4.6,4.6,0,0,1-.091-1.437c0-.772-.034-.772-.034-1.545s-.087-.772-.087-1.544.088-.773.088-1.545-.074-.772-.074-1.545.089-.772.089-1.543-.027-.772-.027-1.544,0-.773,0-1.546-.055-.773-.055-1.546.167-.774.167-1.547-.152-.775-.152-1.549.174-.775.174-1.55a8.142,8.142,0,0,0-.171-1.553,1.765,1.765,0,0,0-.876-1.2,2.733,2.733,0,0,0-1.464-.288c-1,0-1-.228-2-.228a2.729,2.729,0,0,0-1.493.475,1.877,1.877,0,0,0-.918,1.233,8.636,8.636,0,0,0-.024,1.565c0,.723.069.723.069,1.446s.006.722.006,1.444.09.723.09,1.445-.193.723-.193,1.446.108.723.108,1.446-.09.722-.09,1.445.129.724.129,1.447-.076.723-.076,1.446-.072.722-.072,1.444.182.723.182,1.446-.039.724-.039,1.447-.184.724-.184,1.448.021.724.021,1.448-.028.725-.028,1.45.092.725.092,1.45a8.115,8.115,0,0,0,.132,1.543,1.692,1.692,0,0,0,.839,1.191,2.579,2.579,0,0,0,1.45.474c.751,0,.751.025,1.5.025s.752-.065,1.505-.065.752-.012,1.5-.012.752.019,1.5.019.754-.118,1.507-.118.754.232,1.508.232a3.108,3.108,0,0,0,1.575-.358,2.023,2.023,0,0,0,.833-1.365,8.479,8.479,0,0,0,.1-1.565c0-.256-.109-.256-.109-.513A2.477,2.477,0,0,0,576.91,29a2,2,0,0,0-1.556-.435c-.379,0-.778.1-1.3.113-.364.012-.793-.146-1.306-.137-.382.006-.814.131-1.309.131" transform="translate(-211.321 -2.301)" fill="#fff"/>
      <path id="Path_22" data-name="Path 22" d="M38.121,20.914c0-.331.006-.331.006-.662a.3.3,0,0,0-.291-.314c-.232,0-.232.014-.465.014a.268.268,0,0,0-.264.3c0,.331-.038.331-.038.662a.273.273,0,0,0,.3.269c.232,0,.232.038.465.038a.289.289,0,0,0,.284-.307" transform="translate(-13.907 -7.48)" fill="#fff"/>
      <path id="Path_23" data-name="Path 23" d="M40.429,20.914c0-.331.007-.331.007-.662a.3.3,0,0,0-.291-.314c-.232,0-.232.014-.465.014a.268.268,0,0,0-.264.3c0,.331-.038.331-.038.662a.273.273,0,0,0,.3.269c.232,0,.232.038.465.038a.288.288,0,0,0,.284-.307" transform="translate(-14.773 -7.48)" fill="#fff"/>
      <path id="Path_24" data-name="Path 24" d="M57.628,31.364c0,.317.048.317.048.634s.033.317.033.634c0,.169-.187.281-.356.281-.317,0-.317.066-.635.066s-.317-.072-.635-.072a.273.273,0,0,1-.3-.274c0-.317,0-.317,0-.635s-.011-.317-.011-.635.039-.317.039-.635-.032-.317-.032-.634.038-.317.038-.634a.269.269,0,0,1,.264-.3c.317,0,.317-.015.635-.015s.317.026.635.026a.274.274,0,0,1,.284.291c0,.317.067.316.074.634s-.1.319-.1.637.017.317.017.635m-2.975-4.453c-.291,0-.291.066-.58.066s-.291-.072-.58-.072-.29.024-.579.024a.292.292,0,0,1-.3-.3c0-.29-.012-.29-.012-.58s.039-.29.039-.58-.032-.29-.032-.579a.27.27,0,0,1,.3-.264c.29,0,.29-.037.58-.037s.291-.015.58-.015.29.026.58.026a.274.274,0,0,1,.284.291c0,.29-.016.291-.009.581s.048.289.048.58.033.289.033.579c0,.169-.186.281-.356.281m-.638,4.637c-.232,0-.232.032-.465.032a.269.269,0,0,1-.264-.3c0-.232-.037-.232-.037-.465a.31.31,0,0,1,.3-.316c.232,0,.232.026.465.026a.274.274,0,0,1,.284.291c0,.232.012.232.025.465a.279.279,0,0,1-.309.27m-2.426-.184c0,.317.048.317.048.634s.032.317.032.634c0,.169-.186.281-.356.281-.317,0-.317.066-.635.066s-.317-.072-.634-.072a.273.273,0,0,1-.3-.274V32c0-.317-.011-.317-.011-.635s.039-.317.039-.635-.032-.317-.032-.634.038-.317.038-.634a.269.269,0,0,1,.264-.3c.317,0,.317-.015.634-.015s.318.026.635.026a.274.274,0,0,1,.284.291c0,.317.066.316.074.634s-.1.319-.1.637.017.317.017.635M48.72,38.111c0,.351.048.351.048.7a.366.366,0,0,1-.323.356c-.29,0-.29-.076-.58-.076s-.29.067-.58.067-.29-.072-.579-.072a.273.273,0,0,1-.3-.274c0-.352,0-.352,0-.7s-.012-.352-.012-.7.039-.351.039-.7-.032-.352-.032-.7a.269.269,0,0,1,.3-.264c.29,0,.29-.037.58-.037s.29-.015.58-.015.289.026.579.026a.274.274,0,0,1,.284.291c0,.352.066.351.074.7s-.1.353-.1.7.017.352.017.7m-.307-6.833a.3.3,0,0,1-.316.291c-.232,0-.232-.007-.465-.007a.29.29,0,0,1-.309-.284c0-.232.039-.232.039-.465a.274.274,0,0,1,.271-.3c.232,0,.232.038.465.038a.269.269,0,0,1,.3.264c0,.232.015.232.015.465M46.4,24.89a.27.27,0,0,1,.3-.264c.291,0,.291-.037.58-.037s.29-.015.58-.015.29.026.58.026a.274.274,0,0,1,.283.291c0,.29-.016.291-.009.581s.048.289.048.58.033.289.033.579c0,.169-.187.281-.356.281-.291,0-.291.066-.58.066s-.291-.072-.581-.072-.29.024-.579.024a.292.292,0,0,1-.3-.3c0-.29-.012-.29-.012-.58s.039-.29.039-.58-.032-.29-.032-.579M37.963,34.6c-.366,0-.366.061-.73.061s-.365-.1-.73-.1-.364.017-.729.017-.364.048-.729.048a.367.367,0,0,1-.356-.322c0-.333.076-.333.076-.665s-.066-.332-.066-.665.072-.332.072-.664-.024-.332-.024-.664,0-.332,0-.664-.012-.331-.012-.663.039-.331.039-.662a.274.274,0,0,1,.27-.3c.365,0,.365.038.73.038s.365-.037.73-.037.364-.015.729-.015.364.026.729.026a.274.274,0,0,1,.283.291c0,.332,0,.332,0,.665s.047.332.047.664-.084.332-.084.664.039.332.039.664,0,.331,0,.663.03.332.03.663.031.331.031.662a.343.343,0,0,1-.354.3m21.177,5.158c0-.324-.047-.324-.047-.649s.084-.324.084-.649-.039-.324-.039-.648,0-.324,0-.647-.029-.324-.029-.647-.031-.324-.031-.648.057-.324.057-.648-.062-.324-.062-.647.1-.324.1-.647-.017-.324-.017-.647-.048-.324-.048-.648-.033-.323-.033-.647.076-.324.076-.647-.066-.324-.066-.647.072-.323.072-.647-.024-.323-.024-.647v-.647c0-.323-.011-.323-.011-.646s.039-.323.039-.646-.032-.322-.032-.645.039-.324.039-.647-.037-.323-.037-.646-.015-.323-.015-.645.026-.324.026-.647.007-.323.007-.647c0-.065-.076-.066-.141-.066-.325,0-.325-.009-.65-.009s-.325-.063-.65-.063-.325-.019-.65-.019-.324.034-.649.034-.324-.037-.649-.037h-1.3c-.324,0-.324.009-.649.009s-.324.055-.648.055-.324-.02-.649-.02-.324.013-.649.013-.324-.026-.648-.026-.324.057-.649.057-.324-.061-.647-.061-.324.051-.649.051-.324-.009-.647-.009h-.647c-.324,0-.324.007-.647.007s-.324.008-.648.008-.324-.067-.647-.067-.323,0-.647,0-.323.06-.647.06-.324-.019-.648-.019-.324.016-.647.016-.323.017-.646.017-.324-.019-.649-.019-.324-.007-.647-.007-.324-.022-.647-.022-.324.048-.648.048-.324-.043-.648-.043-.324-.018-.647-.018-.565-.068-.65.043c-.07.092-.033.31-.033.653s-.011.343-.011.686.013.343.013.685-.009.342-.009.685.083.342.083.685-.056.342-.056.684.124.293-.122.53-.216.107-.569.107-.354.021-.707.021-.352-.016-.7-.016-.353.016-.705.016-.351.143-.6-.1-.076-.216-.076-.559-.076-.343-.076-.686.04-.342.04-.685-.037-.342-.037-.685.022-.342.022-.685-.031-.342-.031-.684.082-.611.047-.665c-.08-.124-.284-.05-.578-.05s-.294-.019-.587-.019-.293.021-.587.021-.292-.014-.585-.014a.2.2,0,0,0-.158.161c0,.325.041.325.041.65s.049.324.049.649-.086.324-.086.649.062.324.062.649-.06.324-.06.648.037.324.037.647-.048.324-.048.647.025.324.025.648.028.324.028.648-.057.324-.057.647.037.324.037.648.062.323.062.647,0,.324,0,.648-.067.323-.067.647.072.324.072.647-.069.324-.069.647.01.323.01.647.04.323.04.647-.031.324-.031.647-.049.323-.049.646.1.323.1.646-.079.323-.079.646.046.323.046.647-.034.323-.034.647-.007.322-.007.645.066.324.066.647-.056.324-.056.647c0,.065.062.066.127.066.294,0,.294.04.589.04s.294-.038.589-.038.294.106.588.106.292-.075.585-.083c0-.016-.017,0-.017-.021,0-.321-.037-.321-.037-.641s.062-.321.062-.641-.031-.32-.031-.64.022-.32.022-.64.027-.32.027-.64-.048-.319-.048-.639.022-.319.022-.639-.019-.319-.019-.639c0-.169.152-.263.322-.263.365,0,.365-.069.73-.069s.365.042.73.042.364,0,.729,0,.364.029.729.029a.23.23,0,0,1,.257.258c0,.32-.006.32-.006.64s.1.321.1.641-.074.32-.074.64.028.32.028.64.007.32.007.64.027.319.027.639-.024.319-.024.638,0,.32,0,.639c0,.016-.014.013-.017.029.326.008.325-.007.65-.007s.326.014.651.014.324.056.649.056.324-.076.649-.076h.649c.324,0,.324.036.649.036s.324-.056.647-.056.324.021.649.021.324.075.649.075.324-.035.649-.035.324-.038.649-.038.324.027.649.027.324-.047.648-.047.324,0,.648,0,.324-.012.649-.012h.648c.324,0,.324.1.647.1s.324-.052.648-.052.324.008.648.008.324,0,.647,0,.323-.029.646-.029.324.011.647.011.324.066.649.066.324-.037.647-.037.323-.017.646-.017.324-.04.648-.04.324.012.648.012.324-.009.647-.009.324.08.647.08.324.017.648.017.324-.079.648-.079.324.031.647.031c.065,0,.152-.055.152-.12,0-.325-.056-.325-.056-.65s.039-.324.039-.649" transform="translate(-12.09 -8.784)" fill="#fff"/>
      <path id="Path_25" data-name="Path 25" d="M38.113,20.954c0-.333.007-.333.007-.665a.3.3,0,0,0-.291-.317c-.232,0-.232.015-.466.015a.269.269,0,0,0-.264.3c0,.332-.038.332-.038.665a.274.274,0,0,0,.3.271c.233,0,.233.039.466.039a.29.29,0,0,0,.284-.309" transform="translate(-13.904 -7.492)" fill="#fff"/>
      <path id="Path_26" data-name="Path 26" d="M40.422,20.954c0-.333.006-.333.006-.665a.3.3,0,0,0-.291-.317c-.232,0-.232.015-.465.015a.269.269,0,0,0-.264.3c0,.332-.038.332-.038.665a.274.274,0,0,0,.3.271c.233,0,.233.039.465.039a.291.291,0,0,0,.284-.309" transform="translate(-14.77 -7.492)" fill="#fff"/>
      <path id="Path_27" data-name="Path 27" d="M.032,41.861c0,.315-.007.315-.007.63S0,42.805,0,43.12s.015.315.015.629.037.316.037.63-.038.315-.038.63.032.315.032.63-.039.316-.039.631.012.316.012.632c0,.065.032.109.082.109.351,0,.351-.024.7-.024s.352.072.7.072.352-.066.7-.066.352.076.7.076c.05,0,.107-.1.107-.167,0-.327-.048-.327-.048-.654s-.016-.327-.016-.654.1-.327.1-.654S3,44.615,3,44.288s.057-.327.057-.654-.031-.327-.031-.653-.03-.327-.03-.654,0-.327,0-.654-.039-.327-.039-.655.084-.327.084-.655-.047-.328-.047-.656.039-.328.039-.655c0-.092-.076-.121-.137-.074-.241.19-.261.164-.5.354s-.26.166-.5.355-.193.252-.434.442S1.2,40.306.96,40.5s-.291.128-.534.318a1.184,1.184,0,0,0-.342.475,1.506,1.506,0,0,0-.052.572" transform="translate(0 -14.614)" fill="#fff"/>
      <path id="Path_28" data-name="Path 28" d="M18.162,31.6c0,.29.047.29.047.58a.366.366,0,0,1-.322.356c-.326,0-.326-.076-.652-.076s-.327.066-.653.066-.326-.072-.652-.072a.273.273,0,0,1-.3-.274V31.6c0-.292-.011-.292-.011-.583s.039-.291.039-.582-.032-.29-.032-.58a.269.269,0,0,1,.3-.264c.326,0,.326-.037.653-.037s.326-.015.652-.015.326.026.652.026a.274.274,0,0,1,.284.291c0,.292.066.29.074.582s-.1.293-.1.584.017.291.017.582m-2.589-5.857c-.007-.291.1-.292.1-.584s-.016-.291-.016-.582-.048-.291-.048-.581a.366.366,0,0,1,.322-.356c.326,0,.326.076.652.076s.327-.067.653-.067.326.072.652.072a.273.273,0,0,1,.3.274v.583c0,.292.011.292.011.583s-.039.291-.039.582.032.291.032.58a.269.269,0,0,1-.3.264c-.327,0-.327.037-.653.037s-.326.015-.652.015-.326-.026-.652-.026a.275.275,0,0,1-.284-.291c0-.291-.066-.29-.074-.582m.1-6.422c0-.291-.016-.291-.016-.582s-.048-.291-.048-.58a.367.367,0,0,1,.322-.356c.326,0,.326.076.652.076s.327-.066.653-.066.326.072.652.072a.273.273,0,0,1,.3.274v.583c0,.291.011.291.011.583s-.039.291-.039.582.032.291.032.581a.269.269,0,0,1-.3.264c-.327,0-.327.037-.653.037s-.326.015-.652.015-.326-.026-.652-.026a.275.275,0,0,1-.284-.291c0-.292-.066-.29-.074-.582s.1-.293.1-.584m5.921,12.836c0-.327,0-.327,0-.653s-.03-.326-.03-.652-.031-.327-.031-.654.057-.327.057-.654-.061-.326-.061-.653.1-.327.1-.654-.017-.326-.017-.653-.048-.326-.048-.653-.033-.326-.033-.652.076-.327.076-.653-.066-.327-.066-.653.072-.326.072-.652-.024-.326-.024-.653,0-.326,0-.652-.012-.326-.012-.652.039-.326.039-.651-.032-.326-.032-.652.038-.327.038-.653-.037-.326-.037-.652-.015-.326-.015-.651.026-.326.026-.653.109-.351.005-.66-.151-.3-.385-.534a3.377,3.377,0,0,1-.422-.483c-.2-.256-.234-.227-.431-.482s-.127-.307-.323-.562-.245-.218-.441-.474-.148-.292-.344-.547-.226-.232-.421-.487-.157-.284-.353-.54-.215-.239-.41-.494-.217-.238-.412-.492-.151-.29-.347-.545-.225-.232-.42-.487-.246-.217-.441-.472-.191-.257-.387-.512-.142-.3-.338-.551-.252-.211-.448-.466-.14-.3-.336-.551-.2-.248-.4-.5a.691.691,0,0,0-.584-.252.681.681,0,0,0-.577.257c-.2.257-.237.226-.435.482s-.116.319-.314.575-.26.207-.457.464-.161.283-.358.538-.223.235-.421.491-.2.251-.4.507-.145.295-.341.55-.241.221-.438.477-.148.292-.344.547-.228.23-.425.484-.166.279-.363.534-.281.19-.478.445-.131.306-.327.561-.207.246-.4.5-.167.278-.364.533-.246.217-.442.472-.172.274-.368.528-.308.192-.411.5-.027.329-.027.656.047.327.047.655-.022.327-.022.654.02.327.02.654-.059.327-.059.654.068.326.068.653-.042.326-.042.652,0,.327,0,.654-.029.327-.029.653,0,.327,0,.654-.006.327-.006.653.1.327.1.653-.074.327-.074.654.028.326.028.652.007.326.007.653.027.326.027.652-.024.326-.024.652,0,.326,0,.652.006.326.006.653.007.326.007.652-.014.326-.014.651-.056.326-.056.652.075.326.075.652v.652c0,.326-.036.326-.036.651s.056.326.056.652-.021.326-.021.652c0,.066.022.163.087.163.328,0,.328-.035.656-.035s.329-.039.657-.039.328.028.655.028.327-.047.655-.047l.655,0c.327,0,.327-.011.655-.011H11c.327,0,.327.1.654.1s.327-.051.655-.051.327.008.654.008.327-.006.655-.006.327-.028.654-.028.327.011.655.011.326.066.653.066.327-.037.654-.037.327-.017.654-.017.327-.039.653-.039.327.012.654.012.327-.009.654-.009.326.08.653.08.326.017.652.017.327-.079.653-.079.327.031.654.031c.065,0,.153-.055.153-.121,0-.327-.056-.327-.056-.655s.039-.327.039-.655-.047-.327-.047-.654.084-.327.084-.654-.039-.327-.039-.654" transform="translate(-2.339 -3.136)" fill="#fff"/>
      <path id="Path_29" data-name="Path 29" d="M54.4,4.056c-.3,0-.3-.007-.6-.007s-.3-.026-.6-.026-.3.015-.6.015-.3.037-.6.038-.3-.038-.6-.038-.533.119-.631.02.029-.364.029-.7-.012-.339-.012-.679,0-.34,0-.679-.024-.34-.024-.68.072-.34.072-.68a.6.6,0,0,0-.629-.562C49.895.076,49.895,0,49.6,0s-.294.033-.588.033a.577.577,0,0,0-.557.6c0,.339.017.339.017.679s-.1.339-.1.679.061.34.061.679-.057.34-.057.68.157.559.036.669-.309.024-.629.025-.321,0-.642,0-.321.039-.642.039-.321-.084-.642-.084-.322.047-.644.047-.535.087-.628-.032c-.132-.17-.05-.325-.05-.664s.032-.34.032-.679S44.6,2.339,44.6,2s-.079-.34-.079-.68.017-.34.017-.68A.6.6,0,0,0,43.981,0c-.295,0-.295.009-.589.009S43.1,0,42.8,0a.642.642,0,0,0-.6.639c0,.339.017.339.017.679s.037.34.037.679-.066.34-.066.679-.011.341-.011.68.076.572-.01.659c-.117.118-.256.022-.555.022s-.3-.008-.6-.008-.3.052-.6.052-.3-.1-.6-.1h-.6c-.3,0-.3.012-.6.012a.67.67,0,0,0-.636.634c0,.3.052.426-.033.528-.106.126-.239.034-.558.034s-.319.039-.638.039-.319.035-.638.035-.32-.075-.639-.075-.319-.022-.639-.022-.319.056-.637.056-.319-.036-.639-.036H32.92c-.32,0-.32.075-.639.075s-.319-.056-.639-.056-.319-.014-.639-.014-.32.007-.64.007-.319.007-.639.007h-.64c-.319,0-.319-.024-.639-.024s-.32.027-.64.027-.32.007-.64.007-.319.029-.639.029-.32-.074-.64-.074-.32.1-.639.1-.32-.006-.639-.006h-.64c-.32,0-.32-.029-.64-.029s-.321,0-.64,0-.321-.042-.642-.042-.321.069-.642.069c-.1,0-.171.082-.109.162.194.252.209.24.4.492s.177.266.372.519.232.224.427.476.173.269.367.522.177.266.372.519.219.234.414.486.146.291.341.544.226.231.421.484.106.374.389.523c.252.133.3-.081.582-.081s.286.107.572.107.287-.039.573-.039.286.041.573.041c.155,0,.291.074.291.229,0,.3-.056.3-.056.609s.066.3.066.61-.007.3-.007.61-.034.306-.034.611a1.93,1.93,0,0,0,.046.605.462.462,0,0,0,.112.272.619.619,0,0,0,.517.158c.323,0,.323.05.647.05s.324.031.647.031.324-.04.649-.04.524.074.635,0c.153-.107.064-.341.064-.692s-.072-.352-.072-.7.067-.352.067-.705-.129-.359,0-.687c.138-.347.194-.3.445-.581s.223-.3.473-.58.293-.24.544-.518a.317.317,0,0,1,.459-.024c.2.208.215.191.412.4s.162.242.359.451.225.183.422.392.25.179.346.451a1.4,1.4,0,0,1,.061.7c0,.352-.086.352-.086.7s.048.353.048.705-.054.594.031.678.3-.016.621-.016.326.014.651.014.326-.021.652-.021.326.019.651.019h.651c.326,0,.326.09.651.09s.326-.031.652-.031.325.022.65.022.326-.037.65-.037.326.04.652.04.326-.076.65-.076.325.078.65.078.326-.076.65-.076.326-.016.652-.016.326.016.651.016.326-.021.651-.021.326.01.651.01.326.019.652.019.326.056.651.056.326-.083.652-.083.326.009.652.009.326-.013.652-.013.326.011.652.011.326.031.652.031.326,0,.652,0,.326.017.651.017.326.044.652.044.327-.048.653-.048.327.021.653.021.326.007.653.007.327.02.654.02.524.058.633-.056.039-.322.039-.647.019-.326.019-.651-.061-.326-.061-.651,0-.326,0-.652.067-.326.067-.651-.007-.326-.007-.652-.007-.326-.007-.651,0-.326,0-.65.01-.326.01-.652S55,7.582,55,7.257s.06-.326.06-.652S55,6.278,55,5.952s.026-.327.026-.654-.013-.327-.013-.653a.6.6,0,0,0-.615-.589" transform="translate(-7.98 0)" fill="#fff"/>
    </g>
  </g>
</svg>
