<svg xmlns="http://www.w3.org/2000/svg" width="40" height="40.001" viewBox="0 0 40 40.001">
  <path id="Path_45" data-name="Path 45" d="M27.99,7.989a20,20,0,1,0,20,20,20.023,20.023,0,0,0-20-20ZM38.634,22.773a8.559,8.559,0,0,1-1.951,2.07c0,.116.005.232.005.348A11.862,11.862,0,0,1,18.43,35.184a.357.357,0,0,1,.234-.655,8.1,8.1,0,0,0,.923.054,7.712,7.712,0,0,0,4.064-1.14,4.4,4.4,0,0,1-3.157-2.936.358.358,0,0,1,.073-.346.355.355,0,0,1,.335-.113c.067.013.135.024.2.033a4.418,4.418,0,0,1-2.045-3.718v-.051a.357.357,0,0,1,.53-.312,3.726,3.726,0,0,0,.482.224,4.412,4.412,0,0,1-.384-4.985.357.357,0,0,1,.586-.046,11.17,11.17,0,0,0,7.63,4.064,4.487,4.487,0,0,1-.031-.533,4.4,4.4,0,0,1,7.473-3.157,7.726,7.726,0,0,0,2.268-.9.357.357,0,1,1,.523.415,4.365,4.365,0,0,1-.828,1.5,7.6,7.6,0,0,0,.888-.33.357.357,0,0,1,.441.525Z" transform="translate(-7.99 -7.989)" fill="#474442"/>
</svg>
